<?xml version="1.0" standalone="no"?>
<!DOCTYPE svg PUBLIC "-//W3C//DTD SVG 20010904//EN"
 "http://www.w3.org/TR/2001/REC-SVG-20010904/DTD/svg10.dtd">
<svg version="1.0" xmlns="http://www.w3.org/2000/svg"
 width="237.000000pt" height="236.000000pt" viewBox="0 0 237.000000 236.000000"
 preserveAspectRatio="xMidYMid meet">

<g transform="translate(0.000000,236.000000) scale(0.100000,-0.100000)"
fill="#b11226" stroke="none">
<path d="M1100 2282 c-77 -5 -208 -32 -283 -59 -373 -133 -629 -422 -724 -815
-25 -104 -25 -362 0 -473 160 -696 914 -1070 1553 -770 338 158 567 456 630
818 23 134 15 340 -19 470 -97 367 -383 668 -742 780 -121 38 -286 57 -415 49z
m140 -76 c0 -23 -4 -26 -36 -26 l-36 0 4 -105 3 -105 -27 0 c-24 0 -28 4 -29
28 -1 15 -2 32 -4 37 -1 6 -3 38 -3 73 l-2 62 -40 0 c-36 0 -40 3 -40 25 0 22
4 24 58 27 31 2 78 4 105 6 45 3 47 2 47 -22z m206 -12 c19 -5 23 -19 38 -127
22 -164 22 -158 -13 -146 -18 7 -31 19 -33 32 -2 16 -15 24 -53 34 -46 12 -51
11 -66 -6 -17 -21 -73 -18 -67 3 7 28 145 215 158 216 8 0 25 -3 36 -6z m-489
-123 c35 -90 42 -116 31 -122 -24 -16 -44 -9 -117 37 -39 26 -74 44 -77 41 -3
-2 6 -33 21 -68 26 -64 25 -72 -10 -83 -18 -5 -25 8 -63 107 -23 62 -42 117
-42 123 0 7 12 15 26 18 20 5 42 -4 102 -43 43 -27 78 -48 79 -47 2 1 -9 33
-24 70 -23 57 -25 69 -12 77 29 19 43 1 86 -110z m731 27 c16 -16 -93 -228
-118 -228 -41 0 -38 21 19 131 55 107 72 124 99 97z m144 -89 c19 -10 20 -17
13 -107 l-7 -97 51 50 c43 41 54 48 69 39 9 -6 17 -16 17 -22 0 -6 -38 -52
-84 -102 -81 -89 -84 -91 -103 -73 -20 18 -21 53 -2 183 l5 35 -56 -59 -56
-60 -21 21 -21 21 84 91 c46 50 85 91 87 91 2 0 13 -5 24 -11z m-1175 -62 c42
-46 51 -94 27 -144 -65 -132 -254 -94 -254 52 0 120 146 179 227 92z m708 -72
c167 -44 337 -171 430 -319 260 -417 38 -965 -439 -1086 -106 -27 -246 -27
-352 0 -323 83 -546 368 -546 700 0 129 24 228 83 340 94 181 289 331 479 369
30 6 64 13 75 15 37 9 210 -4 270 -19z m-1005 -163 c0 -21 -7 -30 -30 -39 -53
-20 -53 -100 0 -128 42 -21 67 -19 97 11 21 21 24 32 20 60 -5 27 -2 36 15 45
26 14 38 -2 38 -55 0 -69 -63 -136 -129 -136 -110 0 -174 137 -104 220 45 54
93 65 93 22z m1714 7 c35 -28 56 -70 56 -115 0 -29 -3 -35 -16 -30 -9 3 -19 6
-24 6 -4 0 -10 16 -13 36 -7 41 -23 64 -44 64 -12 0 -14 -8 -9 -32 20 -106 20
-108 -4 -133 -25 -27 -67 -33 -101 -15 -27 15 -59 82 -59 125 0 32 3 35 28 35
25 0 27 -3 27 -40 1 -47 36 -93 56 -73 9 9 9 23 0 57 -17 69 -14 92 15 115 34
26 54 26 88 0z m-134 -1029 c44 -27 82 -50 85 -50 2 0 17 18 31 40 28 41 42
48 61 29 8 -8 1 -29 -29 -78 -22 -36 -42 -67 -43 -69 -2 -3 -208 120 -222 132
-4 3 27 46 33 46 2 0 40 -22 84 -50z m-1386 -15 c16 -25 15 -28 -38 -123 -31
-54 -63 -107 -71 -117 -14 -20 -15 -20 -34 5 -13 16 -16 29 -10 35 16 16 9 39
-21 74 -23 27 -34 32 -53 27 -19 -4 -28 0 -42 20 -9 14 -15 27 -13 28 10 8
227 74 244 75 13 1 29 -9 38 -24z m1327 -101 c56 -53 58 -133 5 -189 -56 -59
-134 -59 -192 -1 -62 62 -51 153 26 204 48 33 118 27 161 -14z m-1197 -29 c17
-13 15 -18 -38 -95 -31 -45 -56 -85 -56 -88 0 -4 18 -18 40 -32 45 -28 45 -29
27 -54 -12 -17 -18 -15 -80 29 -41 29 -65 51 -60 58 24 41 136 197 141 197 4
0 15 -7 26 -15z m935 -195 c24 -66 42 -122 40 -124 -2 -2 -14 -7 -26 -10 -18
-6 -25 -2 -32 16 -5 13 -14 35 -19 50 l-11 26 -55 -20 -55 -20 20 -50 c11 -28
18 -52 17 -53 -2 -2 -14 -6 -28 -10 -24 -6 -27 -1 -68 110 -24 63 -41 119 -38
124 3 5 14 11 25 14 15 4 23 -4 36 -39 9 -24 20 -44 23 -44 18 0 102 35 102
42 0 5 -7 25 -15 45 -8 19 -15 37 -15 40 0 3 39 21 50 22 3 1 25 -53 49 -119z
m-657 59 c23 -12 48 -49 48 -71 0 -25 -42 -23 -58 2 -32 52 -107 41 -132 -20
-26 -64 35 -129 95 -102 19 9 26 7 40 -8 15 -17 15 -19 -7 -34 -48 -34 -136
-9 -174 49 -40 61 -8 161 60 191 31 14 94 10 128 -7z m294 -45 c50 -24 70 -69
66 -146 -3 -43 -50 -89 -101 -98 -93 -17 -163 36 -163 124 0 107 99 167 198
120z"/>
<path d="M1388 2087 l-27 -42 22 -7 c40 -11 47 -9 46 20 -1 15 -4 37 -7 49 -7
21 -9 20 -34 -20z"/>
<path d="M509 1911 c-36 -37 -37 -62 -1 -103 36 -39 85 -43 114 -9 34 43 20
99 -32 126 -40 21 -47 19 -81 -14z"/>
<path d="M1536 1577 l-78 -62 -262 -1 c-250 -1 -414 -14 -447 -35 -15 -11 2
-28 248 -247 l132 -117 1 -211 0 -211 -73 -6 c-93 -8 -137 -23 -137 -48 0 -33
68 -44 270 -44 151 1 192 4 223 17 20 9 37 22 37 28 0 19 -66 40 -145 47 l-75
6 0 211 0 211 183 164 c100 89 188 171 195 181 12 17 10 20 -25 29 -21 6 -50
11 -65 11 -16 0 -28 2 -28 5 0 3 30 34 68 70 37 35 65 64 62 65 -3 0 -40 -28
-84 -63z m-133 -86 c33 -12 -8 -34 -66 -38 -231 -14 -518 -6 -540 16 -5 5 27
12 79 16 49 3 94 8 99 10 17 7 409 3 428 -4z m156 -17 c10 -9 -8 -13 -74 -20
l-70 -7 25 21 c20 17 34 20 70 15 25 -3 47 -7 49 -9z m-654 -40 c92 -6 193
-11 277 -13 40 -1 45 -3 41 -20 -3 -10 1 -29 7 -41 10 -19 8 -26 -16 -51 -33
-34 -24 -38 18 -7 23 16 46 21 90 22 53 1 63 4 85 30 17 20 23 36 19 52 -5 18
-2 24 11 25 10 0 29 2 43 4 14 3 41 7 60 9 l35 5 -65 -60 c-71 -66 -114 -90
-205 -114 -110 -28 -250 -11 -368 46 -46 21 -173 135 -141 126 10 -3 60 -9
109 -13z m500 -44 c0 -18 -6 -26 -23 -28 -24 -4 -38 18 -28 44 3 9 15 14 28
12 17 -2 23 -10 23 -28z m-194 -295 c1 -5 2 -99 3 -207 2 -109 4 -200 7 -202
2 -2 27 -7 54 -10 143 -18 171 -27 139 -44 -75 -40 -435 -35 -476 6 -13 13
109 40 185 42 16 0 17 17 17 213 l0 214 35 -1 c19 -1 35 -5 36 -11z"/>
<path d="M1178 965 c-5 -38 -8 -118 -8 -177 0 -95 -2 -109 -21 -126 l-20 -20
27 -6 c14 -4 40 -4 57 0 29 6 30 7 11 21 -17 12 -20 34 -29 196 -9 166 -11
176 -17 112z"/>
<path d="M448 622 l-48 -17 23 -29 23 -28 15 23 c19 29 41 69 37 68 -2 0 -24
-8 -50 -17z"/>
<path d="M1753 550 c-47 -19 -57 -82 -18 -124 34 -37 75 -38 113 -3 38 36 22
97 -35 126 -25 13 -30 13 -60 1z"/>
<path d="M1152 323 c-20 -8 -40 -55 -36 -87 10 -88 130 -93 149 -6 7 32 -15
84 -40 94 -19 7 -54 7 -73 -1z"/>
</g>
</svg>
