<svg xmlns="http://www.w3.org/2000/svg" version="1.1" width="960" height="1038">
<path d="M0 0 C316.8 0 633.6 0 960 0 C960 342.54 960 685.08 960 1038 C643.2 1038 326.4 1038 0 1038 C0 695.46 0 352.92 0 0 Z " fill="#FEFEFE" transform="translate(0,0)"/>
<path d="M0 0 C2.88467423 -0.00217565 5.7689579 -0.02037587 8.65356445 -0.03930664 C27.16598894 -0.09665756 45.38585148 1.51379102 63.66333008 4.43530273 C64.33737885 4.54300995 65.01142761 4.65071716 65.7059021 4.76168823 C122.31376962 13.88831501 176.85855002 36.90568642 222.85083008 71.18530273 C223.38869141 71.58426758 223.92655273 71.98323242 224.48071289 72.39428711 C245.16515786 87.80525331 265.20781608 105.43511659 281.85083008 125.18530273 C282.6577832 126.1147168 283.46473633 127.04413086 284.29614258 128.00170898 C317.54477012 166.45599065 341.87980034 211.68972531 356.85083008 260.18530273 C357.06288086 260.86979492 357.27493164 261.55428711 357.4934082 262.25952148 C358.70287222 266.21240389 359.79518094 270.18891672 360.85083008 274.18530273 C361.04773438 274.90540527 361.24463867 275.62550781 361.44750977 276.36743164 C364.77300463 288.57013631 367.03084517 300.67733726 368.54125977 313.234375 C368.82931825 315.39350846 368.82931825 315.39350846 369.85083008 318.18530273 C372.25842822 334.08178326 372.28995541 350.07903868 372.28833008 366.12280273 C372.2890942 366.78175034 372.28985832 367.44069794 372.2906456 368.11961365 C372.31179752 390.21763091 371.0698384 411.48879697 366.85083008 433.18530273 C366.6373291 434.34787598 366.42382812 435.51044922 366.20385742 436.70825195 C363.85998242 449.43135695 360.89589508 461.89643492 356.85083008 474.18530273 C356.53629883 475.14662109 356.22176758 476.10793945 355.89770508 477.09838867 C350.93640416 492.13501804 345.37165578 506.75872367 338.85083008 521.18530273 C338.52791992 521.91475098 338.20500977 522.64419922 337.87231445 523.39575195 C326.72414906 548.55990789 311.65794183 571.4743085 294.85083008 593.18530273 C294.11993164 594.13147461 293.3890332 595.07764648 292.63598633 596.05249023 C288.68843295 601.07096403 284.53243454 605.85833226 280.22192383 610.56811523 C278.33142422 612.65482814 276.48836628 614.76682384 274.65161133 616.90014648 C270.49037827 621.66412548 266.07463421 626.15347913 261.60083008 630.62280273 C260.75963623 631.46319092 259.91844238 632.3035791 259.05175781 633.16943359 C253.23949731 638.92455187 247.30863079 644.16592181 240.85083008 649.18530273 C238.99372462 650.7651881 237.13973679 652.34874304 235.28833008 653.93530273 C191.65442212 690.22211308 137.61003882 715.27338723 82.21850586 726.85009766 C79.72022793 727.37397748 77.22502482 727.91105786 74.72973633 728.44897461 C66.85663898 730.12048864 59.1667393 731.58763087 51.10522461 732.00292969 C48.68311548 732.10859502 48.68311548 732.10859502 45.85083008 733.18530273 C33.17765732 734.54291342 20.36300948 734.37151967 7.63549805 734.37060547 C4.25271892 734.37278541 0.87027038 734.39099089 -2.51245117 734.40991211 C-20.35572598 734.45616917 -38.0564281 733.80573885 -55.53198242 729.96264648 C-58.7545396 729.2701099 -61.96544867 728.69444235 -65.21630859 728.16162109 C-96.78971172 722.93028809 -127.4051692 712.09760443 -156.14916992 698.18530273 C-157.07584473 697.73719238 -158.00251953 697.28908203 -158.95727539 696.82739258 C-178.8791307 687.06007423 -197.91935999 675.32320682 -215.35522461 661.59399414 C-217.16267484 660.17469803 -218.98569971 658.77783243 -220.81323242 657.38452148 C-227.68102454 652.11587491 -234.17806375 646.57668026 -240.49291992 640.65795898 C-242.63012758 638.66847009 -244.79541046 636.75685999 -247.02416992 634.87280273 C-256.0403622 627.04742831 -264.48355336 618.32904266 -272.14916992 609.18530273 C-272.9303418 608.29327148 -273.71151367 607.40124023 -274.51635742 606.48217773 C-303.97592502 572.66672077 -326.32026823 532.69645357 -341.28051758 490.53149414 C-342.00439906 488.5763224 -342.83045458 486.65936413 -343.68041992 484.75561523 C-345.75058168 479.72336031 -347.12275892 474.56266297 -348.52416992 469.31030273 C-348.82726074 468.18366211 -349.13035156 467.05702148 -349.44262695 465.89624023 C-352.36480684 454.79349872 -354.61903117 443.58388028 -356.68774414 432.29467773 C-357.06786878 430.14311613 -357.06786878 430.14311613 -358.14916992 428.18530273 C-361.89447544 407.8134276 -362.56112081 387.15454063 -362.58666992 366.49780273 C-362.59248077 365.41839417 -362.59829163 364.3389856 -362.60427856 363.22686768 C-362.66210531 347.65624009 -361.39467696 332.58517342 -359.14916992 317.18530273 C-358.96715392 315.85866066 -358.7868051 314.53178766 -358.60888672 313.20458984 C-353.78001605 277.81113316 -343.55942842 243.45169001 -328.14916992 211.18530273 C-327.73957031 210.32066406 -327.3299707 209.45602539 -326.90795898 208.56518555 C-311.26469205 175.77660498 -290.60875757 146.29151455 -266.19995117 119.45483398 C-264.29688904 117.34877856 -262.43763171 115.21209804 -260.58666992 113.06030273 C-255.22750817 106.92319815 -249.43730389 101.3219662 -243.25854492 96.01733398 C-240.97287446 94.03218686 -238.75215614 91.98490443 -236.52416992 89.93530273 C-183.26357726 42.01695797 -114.76803952 12.9159628 -44.33666992 2.49780273 C-43.1380835 2.31846191 -43.1380835 2.31846191 -41.9152832 2.13549805 C-27.99124477 0.18946067 -14.03213689 -0.00117769 0 0 Z " fill="#FEFEFE" transform="translate(479.149169921875,186.814697265625)"/>
<path d="M0 0 C1.30982849 0.00253784 1.30982849 0.00253784 2.64611816 0.00512695 C4.77840594 0.00950387 6.91068867 0.01622799 9.04296875 0.0234375 C9.03597143 0.6639269 9.02897411 1.30441629 9.02176476 1.96431446 C8.6091049 40.01845266 8.32325965 78.07161356 8.19958311 116.12782657 C8.18458842 120.70843072 8.16854601 125.28903064 8.15185547 129.86962891 C8.14855063 130.78145219 8.1452458 131.69327548 8.14184082 132.63272977 C8.0860016 147.35147702 7.94550813 162.06823975 7.77310705 176.78603065 C7.59779842 191.91490291 7.51490177 207.0422998 7.51581192 222.17219639 C7.51351871 231.49191202 7.44121487 240.80546684 7.27606899 250.12374264 C7.16939269 256.53463328 7.15338913 262.94198212 7.20510548 269.35353035 C7.23229327 273.04260107 7.22298525 276.72073878 7.10466194 280.40825462 C6.69039654 294.06049789 7.30578378 305.32084198 16.83953649 315.70698214 C22.20656868 321.24746714 28.06219859 326.16335698 34.04296875 331.0234375 C35.58163223 332.3446327 37.11436278 333.672804 38.63816833 335.0111084 C39.23697028 335.53463646 39.83577223 336.05816452 40.45271969 336.59755707 C42.84082179 338.73882421 45.10368013 340.99013085 47.35546875 343.2734375 C48.04249878 343.96614746 48.04249878 343.96614746 48.7434082 344.67285156 C50.65938792 346.60483315 52.5691804 348.54288534 54.47949219 350.48046875 C61.07920487 357.19391876 61.07920487 357.19391876 68.04296875 363.5234375 C73.85183483 368.49232498 79.1168009 374.04121967 84.47949219 379.48046875 C91.06276446 386.17925149 91.06276446 386.17925149 98.01171875 392.4921875 C104.03456726 397.64411494 109.48986302 403.41525883 115.05224609 409.05322266 C120.21545644 414.28019706 125.38837335 419.40565241 130.97851562 424.18164062 C136.041366 428.69845037 140.7170472 433.65003508 145.47949219 438.48046875 C152.06276446 445.17925149 152.06276446 445.17925149 159.01171875 451.4921875 C165.03456726 456.64411494 170.48986302 462.41525883 176.05224609 468.05322266 C181.21545644 473.28019706 186.38837335 478.40565241 191.97851562 483.18164062 C197.041366 487.69845037 201.7170472 492.65003508 206.47949219 497.48046875 C211.58127647 502.64841952 216.71832457 507.6762405 222.25 512.38671875 C225.14615578 515.03048622 227.56549393 517.98853084 230.04296875 521.0234375 C222.88858194 528.3658228 215.78242223 535.54854278 207.71484375 541.90234375 C205.92051659 543.32678768 204.15966134 544.79434801 202.43359375 546.30078125 C177.10683173 568.37226736 145.5871049 584.85952603 114.04296875 596.0234375 C112.82222656 596.48878906 111.60148437 596.95414063 110.34375 597.43359375 C77.61484736 609.7044686 44.01225236 614.36795513 9.23046875 614.3984375 C8.26545441 614.40052216 7.30044006 614.40260681 6.30618286 614.40475464 C-6.56837724 614.4015978 -19.18718249 613.65453547 -31.95703125 612.0234375 C-32.97418213 611.89791504 -33.99133301 611.77239258 -35.03930664 611.64306641 C-94.26575687 603.96692841 -150.69394846 576.89570661 -194.95703125 537.0234375 C-195.80370361 536.26135986 -195.80370361 536.26135986 -196.66748047 535.48388672 C-206.2590298 526.81099527 -215.52460616 518.06020667 -223.6015625 507.92578125 C-225.15921562 506.00648396 -226.76095762 504.1220655 -228.40625 502.27734375 C-241.74621281 487.26240803 -252.69759728 469.81789636 -261.95703125 452.0234375 C-262.29637695 451.37503906 -262.63572266 450.72664063 -262.98535156 450.05859375 C-269.07467573 438.34791597 -274.66079117 426.36454957 -279.23120117 413.97558594 C-279.90337306 412.16775331 -280.60851195 410.3722709 -281.31640625 408.578125 C-288.57734165 389.36520043 -293.09747572 368.54692739 -295.68066406 348.18505859 C-295.86328113 346.75670922 -296.05774107 345.32981859 -296.26464844 343.90478516 C-302.50014881 300.73820606 -297.55672336 254.31484691 -283.95703125 213.0234375 C-283.67134277 212.15525391 -283.3856543 211.28707031 -283.09130859 210.39257812 C-269.50393722 169.84334016 -247.87704134 131.85133757 -218.4609375 100.6796875 C-216.10272648 98.17799719 -213.84099806 95.61448473 -211.58203125 93.0234375 C-206.10036883 86.92728268 -200.08126844 81.46082759 -193.95703125 76.0234375 C-193.18383545 75.33314453 -193.18383545 75.33314453 -192.39501953 74.62890625 C-149.15406507 36.26620584 -94.76886837 12.14238295 -37.95703125 3.0234375 C-37.26609375 2.91016113 -36.57515625 2.79688477 -35.86328125 2.68017578 C-23.91515278 0.74288958 -12.08551207 -0.04494255 0 0 Z " fill="#414143" transform="translate(474.95703125,246.9765625)"/>
<path d="M0 0 C0.65901094 -0.00367669 1.31802187 -0.00735338 1.99700284 -0.01114148 C4.21555932 -0.02219554 6.434069 -0.02602506 8.65264893 -0.02983093 C10.23924916 -0.03609432 11.82584792 -0.04274101 13.41244507 -0.04974365 C17.73076849 -0.0671657 22.04908082 -0.07770884 26.36743069 -0.08594918 C29.06473165 -0.09109713 31.76202917 -0.09717298 34.4593277 -0.10346031 C42.89658665 -0.12251636 51.33383682 -0.13674622 59.77111316 -0.14507228 C69.51402295 -0.15484512 79.25670558 -0.18116408 88.99953532 -0.22157317 C96.52742226 -0.25172521 104.05524405 -0.26654031 111.5831902 -0.26985329 C116.08047254 -0.27220496 120.5775123 -0.28118033 125.07472992 -0.30631447 C129.30681366 -0.32958412 133.53849495 -0.333833 137.77062607 -0.32355309 C139.32262637 -0.32305733 140.87464641 -0.32938954 142.42658615 -0.34310913 C144.54870694 -0.36081716 146.66938168 -0.35372921 148.79150391 -0.34057617 C150.57127687 -0.3441587 150.57127687 -0.3441587 152.38700485 -0.34781361 C157.63307098 0.44806424 160.73039334 3.27023661 164.48760986 6.85420227 C167.2554582 11.0697328 167.34681491 13.90911979 167.24346924 18.83467102 C167.24350952 19.655401 167.2435498 20.47613098 167.24359131 21.32173157 C167.23825131 23.04975581 167.22073363 24.77778069 167.19171143 26.50556946 C167.14984168 29.1394685 167.15064886 31.77080749 167.15753174 34.40498352 C167.14703808 36.08989699 167.13409902 37.77479737 167.11846924 39.45967102 C167.11826782 40.24108459 167.11806641 41.02249817 167.11785889 41.82759094 C167.01444169 46.64342853 166.27102828 49.96188768 163.64971924 54.14717102 C159.38150072 57.98856769 156.25626615 60.40183395 150.44390869 60.3742218 C149.38303543 60.37407074 148.32216217 60.37391968 147.22914124 60.37376404 C146.08531479 60.36344147 144.94148834 60.3531189 143.76300049 60.34248352 C142.59085495 60.33965363 141.41870941 60.33682373 140.21104431 60.33390808 C136.46133281 60.32269855 132.71185875 60.29759231 128.96221924 60.27217102 C126.42250914 60.26214223 123.88279531 60.25301621 121.34307861 60.24482727 C115.11179339 60.22445694 108.88102261 60.18530889 102.64971924 60.14717102 C102.64971924 71.03717102 102.64971924 81.92717102 102.64971924 93.14717102 C105.31034424 93.10592102 107.97096924 93.06467102 110.71221924 93.02217102 C141.04957384 92.92115571 174.26694932 101.20117602 202.68927002 111.45307922 C204.72716823 112.17459163 206.77737777 112.84609782 208.83331299 113.51435852 C261.32588591 130.94837094 309.4296033 159.81692505 350.27081299 196.98701477 C351.8355343 198.40785367 353.41085453 199.81712205 354.99737549 201.21357727 C365.17280675 210.19773853 374.89722813 219.76542832 383.64971924 230.14717102 C384.49276611 231.10107727 385.33581299 232.05498352 386.20440674 233.03779602 C406.02438697 255.53997691 422.98959046 280.60692542 437.39923096 306.87226868 C438.51037159 308.89366821 439.64049161 310.90262322 440.77862549 312.90888977 C451.01446161 331.37475171 458.93772265 351.15858466 465.64971924 371.14717102 C465.98068604 372.12669739 466.31165283 373.10622375 466.65264893 374.11543274 C488.4571531 439.47678136 494.16876261 513.58315206 479.64971924 581.14717102 C479.477146 581.95267395 479.30457275 582.75817688 479.12677002 583.58808899 C468.11996353 634.41280011 468.11996353 634.41280011 458.06768799 655.13545227 C456.89995861 657.61567087 455.81698965 660.09837746 454.76300049 662.62763977 C444.1310214 688.13703182 431.45881493 712.44693106 415.64971924 735.14717102 C415.27669678 735.68471008 414.90367432 736.22224915 414.51934814 736.77607727 C398.90364525 759.20648568 381.17017554 779.67347041 361.89971924 799.02217102 C361.10759033 799.81897278 360.31546143 800.61577454 359.49932861 801.4367218 C354.71098905 806.21203869 349.80581846 810.77225969 344.64971924 815.14717102 C344.01356689 815.69002747 343.37741455 816.23288391 342.72198486 816.79219055 C332.08697019 825.80732006 321.0844642 834.17532252 309.64971924 842.14717102 C309.03483643 842.57949036 308.41995361 843.01180969 307.78643799 843.45722961 C253.62677297 881.35998853 188.31758716 905.92458243 122.57061768 912.83857727 C120.69259008 913.03699142 118.81549618 913.2445722 116.9397583 913.46357727 C73.61437022 918.49511811 29.16588737 915.35365484 -13.35028076 906.14717102 C-14.17576416 905.96960266 -15.00124756 905.7920343 -15.85174561 905.60908508 C-84.78262741 890.56523187 -148.86891424 856.72642033 -200.97137451 809.30732727 C-202.53609583 807.88648838 -204.11141605 806.47721999 -205.69793701 805.08076477 C-215.87336827 796.09660351 -225.59778965 786.52891372 -234.35028076 776.14717102 C-235.19332764 775.19326477 -236.03637451 774.23935852 -236.90496826 773.25654602 C-254.22444925 753.58896007 -269.38518301 731.91440814 -282.35028076 709.14717102 C-282.83077881 708.30509094 -283.31127686 707.46301086 -283.80633545 706.59541321 C-297.14948813 683.02666688 -307.62474975 658.65951619 -316.35614014 633.03877258 C-317.15459278 630.71635777 -317.9784677 628.4095713 -318.83465576 626.10810852 C-340.02075949 567.3648209 -342.19363441 498.20565356 -332.35028076 437.14717102 C-332.2139624 436.28172668 -332.07764404 435.41628235 -331.93719482 434.52461243 C-326.37680084 399.82030585 -316.06705098 366.05737797 -301.35028076 334.14717102 C-300.92198975 333.19922668 -300.49369873 332.25128235 -300.0524292 331.27461243 C-275.46089081 277.02029989 -237.0864906 224.69954566 -190.23699951 187.44404602 C-188.02823733 185.6866006 -185.84994346 183.90730383 -183.68231201 182.10029602 C-175.21178239 175.06571489 -166.54176313 168.55119115 -157.35809326 162.47676086 C-155.3788308 161.16607709 -153.4113908 159.83891214 -151.44403076 158.51045227 C-105.38614248 127.73748612 -52.06592944 106.08340323 2.64971924 97.14717102 C4.26161133 96.88226868 4.26161133 96.88226868 5.90606689 96.61201477 C19.49531431 94.41219886 32.88878987 92.65215925 46.64971924 92.14717102 C46.64971924 81.58717102 46.64971924 71.02717102 46.64971924 60.14717102 C43.04936768 60.18197571 39.44901611 60.2167804 35.73956299 60.25263977 C32.24128003 60.27605563 28.74300591 60.29426072 25.24468994 60.31196594 C22.81886875 60.32702511 20.39307466 60.34747664 17.96734619 60.37348938 C14.47468362 60.40999805 10.98238199 60.42692655 7.48956299 60.44013977 C6.41012924 60.45562363 5.3306955 60.47110748 4.21855164 60.48706055 C-1.76481086 60.48838906 -6.09509154 60.09656149 -11.35028076 57.14717102 C-16.67631218 51.67719281 -17.6639446 46.42883935 -17.68621826 38.99482727 C-17.69287506 38.21707443 -17.69953186 37.43932159 -17.70639038 36.63800049 C-17.71648413 34.99825901 -17.72120842 33.35847673 -17.72088623 31.71870422 C-17.72526116 29.22085981 -17.76161711 26.72478158 -17.79949951 24.22724915 C-17.80536822 22.62894785 -17.80933725 21.03063823 -17.81121826 19.43232727 C-17.82558929 18.6915242 -17.83996033 17.95072113 -17.85476685 17.18746948 C-17.80958333 12.01684099 -16.59202073 9.13503751 -13.35028076 5.14717102 C-8.6237783 0.98334742 -6.25921289 0.02257255 0 0 Z M16.89971924 139.89717102 C15.2881897 140.14769226 15.2881897 140.14769226 13.644104 140.40327454 C-3.95871909 143.26544918 -21.3792424 147.66935147 -38.35028076 153.14717102 C-39.10518799 153.3901593 -39.86009521 153.63314758 -40.63787842 153.88349915 C-79.47806719 166.55758242 -116.14134276 186.01659845 -148.35028076 211.14717102 C-149.16239014 211.77752258 -149.97449951 212.40787415 -150.81121826 213.05732727 C-172.70860753 230.31303693 -192.95508329 249.32896258 -210.35028076 271.14717102 C-211.25742423 272.24103988 -212.16637678 273.33341022 -213.07684326 274.42451477 C-261.40697999 332.82983142 -291.99528213 412.25060258 -292.58856201 488.36592102 C-292.59817459 489.41084717 -292.60778717 490.45577332 -292.61769104 491.53236389 C-292.64231233 494.90399987 -292.65494568 498.27545567 -292.66278076 501.64717102 C-292.66606384 502.79713562 -292.66934692 503.94710022 -292.67272949 505.13191223 C-292.68641538 519.98341973 -292.28460908 534.64854591 -290.47528076 549.39717102 C-290.34471786 550.46487732 -290.34471786 550.46487732 -290.21151733 551.55415344 C-289.32975007 558.55577729 -288.1881237 565.33763344 -286.35028076 572.14717102 C-286.04156285 573.57983598 -285.74389973 575.01491556 -285.45574951 576.45185852 C-283.3795807 586.80223705 -280.8881989 596.93969135 -277.94403076 607.07637024 C-277.38292919 609.03330426 -276.85008444 610.99827635 -276.31903076 612.96357727 C-275.99934326 614.13791321 -275.67965576 615.31224915 -275.35028076 616.52217102 C-275.08215576 617.5199054 -274.81403076 618.51763977 -274.53778076 619.54560852 C-273.13471309 623.80096509 -271.42625127 627.87777731 -269.67938232 632.00215149 C-268.44510685 634.92278644 -267.24658357 637.8548521 -266.06121826 640.79560852 C-244.63396924 693.54662891 -211.16469783 743.22579968 -167.35028076 780.14717102 C-166.4208667 780.95412415 -165.49145264 781.76107727 -164.53387451 782.59248352 C-114.46282737 825.88528538 -53.31851035 853.93901291 11.65020752 865.78144836 C13.359633 866.09411251 15.0656358 866.42539242 16.77081299 866.76045227 C34.54190601 870.06259863 52.62814122 870.45377145 70.64727783 870.35298157 C74.04269884 870.33457355 77.43784686 870.332474 80.83331299 870.3327179 C99.98239249 871.12750022 99.98239249 871.12750022 118.64971924 868.14717102 C120.32788324 867.99096456 122.00645168 867.83816242 123.68658447 867.70478821 C144.30525282 865.95399199 165.60969938 860.89778116 185.10626221 854.03535461 C188.04986364 853.00743927 191.0078664 852.02661872 193.96612549 851.04170227 C254.24239727 830.61899496 314.18919687 793.05095671 353.82550049 742.46748352 C355.46639075 740.38035544 357.17499362 738.42094949 358.96221924 736.45967102 C374.19613819 719.15478152 386.43622803 699.20232742 397.64971924 679.14717102 C398.01017334 678.51279114 398.37062744 677.87841125 398.74200439 677.22480774 C411.81628528 654.17130529 421.51572629 628.6346965 428.64971924 603.14717102 C428.92694824 602.19705139 428.92694824 602.19705139 429.20977783 601.22773743 C432.16461385 591.05788011 434.39534281 580.8186465 436.27471924 570.39717102 C436.56560425 568.79506775 436.56560425 568.79506775 436.86236572 567.16059875 C437.37708193 564.2046322 437.86098474 561.24597519 438.31820679 558.28059387 C438.55237289 556.77363593 438.79368445 555.26778003 439.04006958 553.76277161 C441.56959355 538.08937951 442.08805355 522.68144096 441.98590088 506.82099915 C441.96216298 502.88784917 441.96538717 498.95537541 441.97198486 495.02217102 C441.95087178 476.04061659 440.59208627 457.82890525 437.03204346 439.18818665 C436.65637857 437.18272147 436.30749606 435.17435556 435.96612549 433.16279602 C434.20357518 422.94732716 431.60953351 413.07675451 428.64971924 403.14717102 C428.18227295 401.5766095 428.18227295 401.5766095 427.7053833 399.97431946 C426.67454759 396.5292883 425.63324553 393.08761876 424.58721924 389.64717102 C424.25891113 388.561297 423.93060303 387.47542297 423.59234619 386.35664368 C421.57770648 379.8081843 419.2802024 373.47110851 416.64971924 367.14717102 C416.10086956 365.77035239 415.55390123 364.39278184 415.00909424 363.01435852 C411.04388823 353.12272752 406.62838822 343.56875846 401.64971924 334.14717102 C401.28539795 333.45575012 400.92107666 332.76432922 400.54571533 332.05195618 C390.23337388 312.63918425 378.40096969 294.29639576 364.64971924 277.14717102 C363.43155518 275.60996399 363.43155518 275.60996399 362.18878174 274.04170227 C357.65169129 268.39819854 352.87531625 263.0115424 347.97003174 257.68623352 C346.06556582 255.60222199 344.22356622 253.48846016 342.39971924 251.33467102 C334.54393914 242.30332288 325.8179767 233.83334175 316.64971924 226.14717102 C315.75768799 225.36599915 314.86565674 224.58482727 313.94659424 223.77998352 C280.36974818 194.52829051 240.4036135 171.79307676 198.43292236 157.1217804 C195.79410918 156.19773283 193.16724353 155.24507323 190.54034424 154.28779602 C169.66554554 146.83541958 148.04743039 142.38450332 126.14971924 139.27217102 C125.06059235 139.11684906 125.06059235 139.11684906 123.94946289 138.95838928 C108.12854127 136.73435191 92.48463888 135.96053699 76.52105713 135.96186829 C73.61652712 135.95969297 70.71238509 135.94150005 67.80792236 135.92256165 C50.68949407 135.87052444 33.81673675 137.25648648 16.89971924 139.89717102 Z " fill="#414143" transform="translate(409.35028076171875,50.85282897949219)"/>
</svg>