<?xml version="1.0" standalone="no"?>
<!DOCTYPE svg PUBLIC "-//W3C//DTD SVG 20010904//EN"
 "http://www.w3.org/TR/2001/REC-SVG-20010904/DTD/svg10.dtd">
<svg version="1.0" xmlns="http://www.w3.org/2000/svg"
 width="234.000000pt" height="237.000000pt" viewBox="0 0 234.000000 237.000000"
 preserveAspectRatio="xMidYMid meet">

<g transform="translate(0.000000,237.000000) scale(0.100000,-0.100000)"
fill="#2e8b57" stroke="none">
<path d="M1041 2259 c-525 -55 -927 -457 -992 -989 -22 -180 13 -402 91 -575
77 -172 243 -367 400 -469 312 -205 705 -241 1051 -97 170 71 362 226 471 381
228 323 267 751 103 1107 -161 349 -519 608 -880 638 -144 12 -162 12 -244 4z
m124 -63 c104 -44 97 -207 -11 -245 -116 -41 -214 63 -168 179 13 33 26 46 58
61 50 22 76 23 121 5z m254 -22 c2 -2 -2 -24 -9 -49 -7 -25 -11 -47 -9 -49 2
-2 27 -10 56 -18 l51 -15 12 43 c10 36 17 44 36 44 12 0 25 -4 28 -8 3 -5 -11
-61 -31 -125 -36 -117 -46 -130 -80 -109 -10 6 -9 19 2 57 8 26 14 49 13 50
-2 2 -27 9 -56 18 l-53 15 -10 -24 c-5 -14 -12 -36 -15 -50 -6 -22 -11 -25
-33 -19 -14 4 -27 8 -28 9 -2 1 16 57 38 125 38 112 43 121 62 115 12 -4 24
-8 26 -10z m-556 -53 c7 -7 5 -16 -7 -30 -15 -16 -22 -18 -42 -9 -20 9 -29 8
-51 -8 -33 -25 -42 -51 -31 -92 18 -66 115 -78 138 -17 7 18 17 25 36 25 24 0
25 -3 19 -27 -18 -75 -114 -115 -186 -78 -92 48 -90 199 4 241 34 15 102 13
120 -5z m920 -125 c55 -23 87 -69 87 -128 0 -45 -4 -54 -39 -89 -35 -35 -44
-39 -90 -39 -46 0 -56 4 -94 39 -39 36 -42 44 -42 90 0 58 24 97 76 123 41 22
59 22 102 4z m-1263 -118 c29 -35 59 -69 66 -77 10 -11 19 -8 53 20 39 31 42
32 59 15 16 -16 14 -19 -33 -62 -81 -72 -72 -74 -162 34 -76 90 -81 98 -66
114 9 10 19 18 23 18 4 0 31 -28 60 -62z m815 -23 c145 -37 302 -141 390 -257
309 -408 133 -973 -355 -1138 -44 -15 -100 -24 -176 -27 -141 -7 -234 12 -364
74 -81 39 -107 59 -185 137 -72 72 -99 108 -133 176 -64 128 -86 229 -79 365
6 123 22 186 74 292 80 162 231 296 407 360 120 44 293 51 421 18z m685 -96
c10 -17 1 -25 -75 -75 -54 -35 -83 -60 -79 -67 4 -7 16 -24 26 -39 23 -33 23
-45 -1 -57 -16 -9 -24 -2 -60 53 -22 35 -41 68 -41 73 1 11 203 141 212 136 5
-2 13 -13 18 -24z m-1580 -40 c63 -13 116 -24 118 -25 2 -1 -4 -14 -14 -29
-13 -20 -23 -25 -39 -21 -18 5 -28 -2 -49 -34 -28 -43 -32 -60 -15 -77 8 -8 6
-18 -7 -37 -9 -15 -20 -23 -24 -19 -32 35 -150 204 -150 215 0 24 31 59 48 54
10 -3 69 -15 132 -27z m1180 -1261 c0 -5 -25 -20 -55 -35 -56 -28 -62 -36 -45
-63 8 -12 17 -11 66 13 45 22 59 25 65 15 17 -26 8 -39 -45 -65 -50 -24 -53
-28 -43 -50 13 -29 18 -29 79 4 49 27 50 27 64 8 8 -10 14 -21 14 -24 0 -3
-38 -25 -84 -48 -63 -31 -87 -39 -93 -30 -20 26 -117 226 -113 230 3 3 41 23
85 45 72 37 81 39 93 24 6 -9 12 -20 12 -24z m-817 -9 c42 -22 77 -42 77 -45
0 -3 -5 -14 -11 -25 -10 -19 -12 -19 -66 10 -59 32 -68 33 -76 2 -4 -16 6 -25
50 -46 47 -22 53 -28 47 -48 -10 -32 -9 -32 -67 -3 -30 14 -57 26 -60 26 -4 0
-16 -19 -28 -42 -12 -24 -23 -44 -24 -46 -1 -1 -14 3 -28 9 l-26 12 60 118
c32 66 63 119 67 119 4 0 42 -18 85 -41z m224 -70 c69 -12 103 -40 103 -85 0
-37 -22 -74 -47 -80 -28 -7 -27 -2 -3 -59 26 -61 26 -64 -12 -56 -29 6 -36 14
-52 59 -27 76 -65 67 -66 -15 0 -19 -6 -23 -30 -23 -24 0 -30 4 -30 20 0 22
29 216 36 238 4 15 20 15 101 1z m353 2 c0 -5 2 -16 6 -24 4 -11 -7 -16 -46
-21 -70 -9 -80 -15 -80 -43 0 -23 2 -24 48 -17 75 12 86 11 90 -10 5 -24 -11
-33 -70 -41 -45 -7 -48 -9 -48 -37 0 -29 1 -30 38 -24 110 20 102 20 102 -7 0
-16 -7 -28 -17 -31 -32 -8 -164 -28 -167 -25 -5 6 -47 261 -44 264 4 4 128 22
161 24 15 0 27 -3 27 -8z"/>
<path d="M1070 2147 c-59 -30 -45 -138 21 -152 47 -11 83 20 87 73 3 34 -2 47
-22 67 -28 28 -49 31 -86 12z"/>
<path d="M1685 1925 c-63 -62 9 -166 86 -125 21 12 49 60 49 85 0 27 -46 65
-80 65 -19 0 -40 -9 -55 -25z"/>
<path d="M1559 1573 c-3 -38 2 -109 10 -144 l9 -37 -77 -21 c-42 -12 -124 -34
-183 -50 l-106 -29 -193 124 c-106 69 -198 123 -203 121 -45 -15 70 -487 179
-740 6 -14 -10 -35 -69 -94 -42 -43 -76 -85 -76 -94 0 -24 23 -45 67 -61 50
-17 319 -15 388 4 68 18 71 40 9 64 l-48 18 33 9 c24 6 45 4 72 -7 81 -32 155
-10 147 44 -4 27 0 29 105 70 60 23 107 44 104 46 -2 2 -55 -12 -117 -32 -108
-34 -115 -35 -141 -20 -15 9 -47 16 -72 16 -55 0 -81 -21 -75 -61 4 -25 0 -30
-35 -44 -34 -14 -53 -14 -134 -5 -51 6 -103 11 -116 10 -40 -4 -47 0 -47 24 0
18 228 496 245 514 9 10 361 100 366 94 3 -4 14 -29 24 -57 22 -61 52 -105 71
-105 40 0 -6 261 -69 390 -32 64 -66 91 -68 53z m57 -60 c55 -123 105 -371 73
-361 -8 2 -28 39 -45 81 -17 43 -33 79 -35 81 -2 3 -89 -19 -194 -47 l-189
-52 -93 -185 c-51 -101 -98 -189 -103 -194 -7 -7 -10 1 -10 23 0 78 -96 446
-150 574 -16 39 -28 72 -27 73 2 2 83 -48 180 -111 97 -63 185 -115 194 -115
10 1 97 23 193 49 198 55 179 36 165 169 -10 90 5 96 41 15z m-705 -247 c42
-142 84 -322 93 -401 l6 -50 -25 53 c-51 108 -144 451 -159 587 l-6 50 25 -54
c14 -30 44 -113 66 -185z m584 -596 c0 -18 -6 -26 -23 -28 -13 -2 -25 3 -28
12 -10 26 4 48 28 44 17 -2 23 -10 23 -28z"/>
<path d="M351 1649 c14 -18 31 -35 37 -37 11 -3 40 44 31 52 -2 2 -24 7 -49
11 l-45 8 26 -34z"/>
<path d="M978 324 c-5 -4 -8 -20 -8 -36 0 -28 1 -29 47 -26 49 3 63 18 45 46
-10 15 -74 27 -84 16z"/>
</g>
</svg>
