<?xml version="1.0" encoding="UTF-8"?>
<svg width="141" height="185" version="1.1" xmlns="http://www.w3.org/2000/svg">
<path transform="translate(113 51)" d="m0 0c6 4 9 10 12 16 1 5 2 10 2 15-9e-3 0.9-0.02 2-0.03 3-0.6 23-12 43-28 59-15 14-35 22-55 23-9-0.3-19-2-26-8-1-2-1-2-0.9-4 0.2-0.6 0.5-1 0.7-2 1-0.09 2-0.2 3-0.3 17-2 30-7 41-21 10-13 14-27 13-43-0.5-3-1-5-2-8-0.6-4-0.6-8-0.6-12-1e-3 -0.7-1e-3 -1-2e-3 -2 0.05-5 0.05-5 1-7 2-0.2 2-0.2 4-0.2 6-0.5 10-3 14-7 7-4 13-7 21-4zm-24 15c-1 4-0.9 7-0.06 11 2 12 2 24 0.06 36 5-8 5-17 5-26 0.01-0.9 0.03-2 0.04-3-0.04-6-1-12-3-18h-2zm-9 11c-1 3-0.6 5 0 8 3 18-0.8 35-11 49-6 8-13 13-21 18-1 1-3 2-4 3 12-2 22-12 29-21 10-16 14-34 10-53-0.4-1-0.7-2-1-3-0.7-0.3-1-0.7-2-1zm8 36 1 2z" fill="#EA262E"/>
<path transform="translate(81 63)" d="m0 0c0.7-0.01 1-0.02 2-0.04 7-0.02 7-0.02 10 2 1 2 1 4 1 7-9e-3 0.8-0.02 2-0.03 2-0.01 0.6-0.02 1-0.04 2h-1l-2-10c-0.7 0.3-1 0.7-2 1 0.1 1 0.3 2 0.4 3 1 8 2 16 2 24 1e-3 0.7 1e-3 1 2e-3 2-0.04 4-0.5 9-1 13h-2c-0.1-7 0.3-14 1-21h-2v5h-1c-0.3 4-0.7 7-1 11h-1c-0.05-1-0.1-2-0.1-3-0.4-8-0.8-15-3-23-0.3 0.3-0.7 0.7-1 1 0.3 2 0.6 4 1 6 3 18-0.7 35-11 49-7 9-17 18-28 21v-1c-5 0.3-9 0.7-14 1v-1c0.8-0.2 2-0.4 2-0.6 8-2 15-5 22-10 0.7-0.5 1-1 2-2 11-9 18-23 20-37 0.3-6 0.3-12-1-18-1-5-1-9-1-14-1e-3 -0.7-1e-3 -1-2e-3 -2 0.08-7 2-6 9-6z" fill="#EA3037"/>
<path transform="translate(64 14)" d="m0 0c11 6 21 15 27 26 3 3 7 4 12 4 0.9 0.2 2 0.4 3 0.7l1 2c-0.7 0.2-1 0.4-2 0.6-7 2-13 5-19 10-4 2-6 2-10 2 0.4-2 0.7-4 2-5 2-2 2-3 2-7-2-9-6-16-14-22-3-2-5-3-8-4-0.4 0.2-0.4 0.2-2 2-3 2-3 2-6 1-3-0.9-3-0.9-4-3-0.7-3-0.6-4 0.4-7 5-5 12-3 18-0.9z" fill="#2FB06C"/>
<path transform="translate(78,113)" d="m0 0c2 5-0.4 7-2 12-7 13-18 26-32 30-4-0.2-4-0.2-7-1l-2 1c-2 0.04-5 0.04-7 0v-1c0.8-0.2 2-0.4 2-0.6 8-2 15-5 22-10 0.7-0.5 1-1 2-2 8-7 15-17 18-27l1 4 2-3h3v-2z" fill="#E45458"/>
<path transform="translate(79,76)" d="m0 0h3c-1 2-1 2-2 3 0.3 2 0.6 4 1 6 2 9 1 19-1 28h-1v-7h-2c-0.1-10-0.1-20 2-30z" fill="#E75459"/>
<path transform="translate(77,80)" d="m0 0 2 1c-0.06 0.7-0.1 1-0.2 2-0.6 8-1 15-2 23h2c0.1 7 0.1 7-1 9h-3c-0.1 0.6-0.2 1-0.4 2-0.2 0.7-0.4 1-0.6 2l-2 1c0.1-2 0.2-3 0.4-5 0.04-0.4 0.04-0.4 0.2-3 0.4-3 0.4-3 1-4 1-2 1-4 1-7 0.03-0.9 0.07-2 0.1-3 0.03-0.9 0.05-2 0.08-3 0.06-2 0.1-4 0.2-6 0.02-0.8 0.05-2 0.07-3 0.2-3 0.6-5 1-7z" fill="#E22A31"/>
<path transform="translate(75 63)" d="m0 0c0.5 6e-3 0.5 6e-3 3 0.04 0.9 9e-3 2 0.02 3 0.03 0.7 0.01 1 0.02 2 0.04-3 2-3 2-6 2-0.9-0.2-2-0.4-3-0.6 0.1 2 0.2 4 0.4 7 0.07 1 0.1 3 0.2 4 0.4 3 0.4 3 1 5 1 3 1 5 1 8-0.04 1-0.08 2-0.1 3-0.06 1-0.1 2-0.2 3-0.04 1-0.08 2-0.1 3-0.4 8-0.4 8-3 12 0.02-1 0.05-2 0.07-4 0.1-8 0.05-15-2-23-0.6-4-0.6-8-0.6-12 0-0.7-1e-3 -1-2e-3 -2 0.07-6 0.07-6 3-6z" fill="#E05D60"/>
<path transform="translate(85,86)" d="m0 0 4 2c0.4 9-0.8 19-2 28l-1-4h-2l1-26z" fill="#F01B24"/>
<path transform="translate(88,79)" d="m0 0c3 5 3 8 3 14 4e-3 0.8 8e-3 2 0.01 2-8e-3 5-0.3 9-1 14h-2v-30z" fill="#E05E61"/>
<path transform="translate(83,105)" d="m0 0h1c0.8 9-1 15-5 23-0.3 0.7-0.7 1-1 2-0.6 1-1 3-2 4h-3c1-3 3-7 4-10 3-6 4-12 6-19z" fill="#E47374"/>
<path transform="translate(46,147)" d="m0 0c2 0.8 2 0.8 4 2v3c-5 3-8 3-13 2l-2 1c-2 0.04-5 0.04-7 0v-1c0.9-0.3 2-0.5 3-0.8 1-0.3 2-0.7 4-1 1-0.3 2-0.7 3-1 3-1 3-1 6-3 0.7-0.4 1-0.9 2-1z" fill="#E46467"/>
<path transform="translate(72,125)" d="m0 0c0.3 3 0.3 3 0 6-2 3-2 3-5 5v-2l-5 2c2-5 4-11 10-11z" fill="#E3484C"/>
<path transform="translate(77,80)" d="m0 0 2 1c-0.06 0.7-0.1 1-0.2 2-0.6 8-1 15-2 23h2v5l-1-4h-2c-0.03-4-0.05-7-0.06-11-9e-3 -1-0.02-2-0.03-3-3e-3 -1-6e-3 -2-0.01-3-5e-3 -0.9-0.01-2-0.02-3 0.1-3 0.5-5 1-8z" fill="#E41118"/>
<path transform="translate(53,142)" d="m0 0 2 1v1h2c-0.1 2-0.1 2-1 4-3 2-3 2-6 3v-2c-1-0.3-2-0.7-3-1l6-6z" fill="#E3575C"/>
<path transform="translate(17,155)" d="m0 0h10v1h-9v4l4-2c0.3 0.6 0.5 1 0.8 2 1 2 2 4 4 5-5-1-8-2-11-6l1-4z" fill="#E68385"/>
<path transform="translate(43,153)" d="m0 0c-0.5 0.5-1 0.9-2 1-2 2-2 2-2 3l4 1-9 1v-3l-4-1c4-2 8-2 12-2z" fill="#DD1F25"/>
<path transform="translate(93,43)" d="m0 0c2 0.09 3 0.2 5 0.3 0.4 0.03 0.4 0.03 3 0.2 2 0.5 2 0.5 5 4l-10 2 4-3-7-2v-1z" fill="#9AD6B5"/>
<path transform="translate(85,86)" d="m0 0h1l1 22h-3l1-22z" fill="#DA1D24"/>
<path transform="translate(71,125)" d="m0 0 1 4c-1 0.3-2 0.7-3 1l-1 2c-2 1-2 1-4 2 0.1-2 0.1-2 1-5 3-2 3-2 6-4z" fill="#E33338"/>
<path transform="translate(77,80)" d="m0 0 2 1-1 12c-2-4-2-5-2-9 0.1-0.8 0.2-2 0.3-2 0.1-0.6 0.2-1 0.3-2z" fill="#EC1A21"/>
<path transform="translate(46,15)" d="m0 0 4 2-2 5h-2c-1-5-1-5 0-7z" fill="#4CB77D"/>
<path transform="translate(64,163)" d="m0 0v2c-3 1-6 1-10 1 3-3 6-3 10-3z" fill="#DD5C5E"/>
<path transform="translate(78,126)" d="m0 0c0 3-0.7 5-2 8h-3c1-3 2-6 5-8z" fill="#DF4E52"/>
<path transform="translate(89,65)" d="m0 0h4c1 2 1 4 1 7-9e-3 0.8-0.02 2-0.03 2-0.01 0.6-0.02 1-0.04 2h-1c-0.1-0.7-0.2-1-0.4-2-0.2-0.9-0.3-2-0.5-3-0.2-0.9-0.3-2-0.5-3-0.2-0.8-0.4-2-0.6-2l-2-1z" fill="#E47C7D"/>
<path transform="translate(46,147)" d="m0 0 4 2v3l-4 1 1-3-4-1 3-2z" fill="#E56F70"/>
<path transform="translate(72,134)" d="m0 0 1 3-4 4-2-1 5-6z" fill="#DF6266"/>
<path transform="translate(84,108)" d="m0 0h4l-1 8-1-4h-2v-4z" fill="#E6171F"/>
</svg>
