<?xml version="1.0" encoding="UTF-8"?>
<svg id="katman_1" data-name="katman 1" xmlns="http://www.w3.org/2000/svg" version="1.1" viewBox="0 0 147.4 147.4">
  <defs>
    <style>
      .cls-1 {
        fill: #348f41;
      }

      .cls-1, .cls-2, .cls-3 {
        stroke-width: 0px;
      }

      .cls-2 {
        fill: #6abf4b;
      }

      .cls-3 {
        fill: #fff;
      }
    </style>
  </defs>
  <path class="cls-1" d="M73.7,0C33,0,0,33,0,73.7s33,73.7,73.7,73.7,73.7-33,73.7-73.7S114.4,0,73.7,0ZM129.3,90.6H9.8c-1.5-5.5-2.3-11.2-2.3-17.2C7.6,36.9,37.2,7.3,73.7,7.3s66.1,29.6,66.1,66.1-.8,11.8-2.3,17.3h-8.3Z"/>
  <path class="cls-2" d="M61.7,85.5s-.3-1.7-6.5-3.5c0,0-11.4-2.5-15-6.5,0,0-4.9-4.5-7-11.8,0,0-3.2-9.7-5-12.2,0,0-1.4-2.2-1.7-2.5,0,0,2.1,2.9,6.9,3.3,0,0,4.2.2,9.2-.4,0,0,8.1-.8,12.1,2.4,0,0,6.9,4.2,8.3,15.8,0,0,.6,4.4.5,6.3,0,0-1.1-6.8-8.1-12,0,0-5.6-4.5-14.2-5.4,0,0,8.4,4,12.5,9.4,0,0,3.6,3.7,6.4,10.1,0,0,1.1,2.8,1.7,6.8Z"/>
  <path class="cls-2" d="M68.5,88.2s1.4-8.5,3.3-13c0,0,3.7-8.1,7.3-12.4,0,0,3.5-4.6,8.9-9.2,0,0,3.6-3.2,8.7-5.7,0,0-26.4,2.8-31.1,28,0,0-2.2-21.9,9.2-32.3,0,0,5.1-5.2,15.2-5.9,0,0,4-.2,10.8,0,0,0,11.5,1,16.1-6,0,0-3.9,5.9-5.7,12.5,0,0-2.4,7.7-4.1,13.5,0,0-2.3,7.8-7.4,13.3,0,0-4,4.4-9.2,6.5,0,0-2.9,1.6-9.5,3.7,0,0-5.8,1.9-8.7,3.3,0,0-1.5.6-3.8,3.6Z"/>
  <g>
    <polygon class="cls-3" points="41 125.3 36 98.6 40 98.6 43.2 117.9 46.4 98.6 50.5 98.6 45.4 125.3 41 125.3"/>
    <polygon class="cls-3" points="52.4 98.6 63.4 98.6 63.4 102.3 56.5 102.3 56.5 110 62.5 110 62.5 113.4 56.5 113.4 56.5 121.6 63.4 121.6 63.4 125.3 52.4 125.3 52.4 98.6"/>
    <path class="cls-3" d="M90.6,98.6h-4l-5.4,26.6h4.1l.9-5s4.8,0,4.8,0l.9,5h4.1l-5.4-26.6ZM86.7,116.7l1.9-11.7,1.9,11.7s-3.8,0-3.8,0Z"/>
    <polygon class="cls-3" points="108.1 125.3 111.4 125.3 111.4 98.6 107.7 98.6 107.7 114.8 101.4 98.6 98.1 98.6 98.1 125.3 101.8 125.3 101.8 109.1 108.1 125.3"/>
    <path class="cls-3" d="M79.4,111v12.2c0,1.1-.9,2-2,2h-9.4c-1.1,0-2-.9-2-2v-22.7c0-1.1.9-2,2-2h9.4c1.1,0,2,.9,2,2v6.3h-4.1v-4.7h-5.2v19.6h5.2v-7.3h-3v-3.5h7.1Z"/>
  </g>
</svg>