<svg version="1.1" id="Layer_1" xmlns="http://www.w3.org/2000/svg" xmlns:xlink="http://www.w3.org/1999/xlink" x="0px" y="0px"
	 width="100%" viewBox="0 0 1000 1000" enable-background="new 0 0 1000 1000" xml:space="preserve">
<path fill="#000000" opacity="1.000000" stroke="none" 
	d="
M686.000000,1001.000000 
	C457.333344,1001.000000 229.166672,1001.000000 1.000000,1001.000000 
	C1.000000,667.666687 1.000000,334.333344 1.000000,1.000000 
	C334.333344,1.000000 667.666687,1.000000 1001.000000,1.000000 
	C1001.000000,334.333344 1001.000000,667.666687 1001.000000,1001.000000 
	C896.166687,1001.000000 791.333313,1001.000000 686.000000,1001.000000 
M317.011108,684.971924 
	C317.011108,684.971924 316.901062,685.013245 317.094757,685.854065 
	C318.251343,686.246887 319.407898,686.639771 320.248230,687.651001 
	C321.970123,689.768188 323.692017,691.885437 325.888458,694.370911 
	C326.917694,694.300781 327.946899,694.230652 329.309937,694.777283 
	C331.205170,696.916687 336.805328,694.545593 335.917847,700.178162 
	C335.894623,700.325500 336.971313,700.634033 337.526154,700.886902 
	C339.366821,701.725891 341.203400,702.573730 342.186035,703.225952 
	C341.067017,703.606445 339.947998,703.987000 338.828949,704.367554 
	C338.861084,704.959106 338.893219,705.550659 338.925323,706.142212 
	C340.881042,706.458801 342.836761,706.775452 344.669128,707.877502 
	C345.506165,709.928528 345.854065,712.736572 349.312408,711.625122 
	C350.282074,712.648071 351.251770,713.671082 352.728180,715.161926 
	C355.793030,717.134766 358.857910,719.107666 362.397888,721.627197 
	C363.000183,721.363281 363.602448,721.099426 364.528351,721.511353 
	C365.261688,722.355164 365.995026,723.198975 367.208954,724.586426 
	C370.410645,725.697266 373.612335,726.808105 377.285522,728.321960 
	C377.772644,728.566772 378.259735,728.811646 378.760040,729.826660 
	C382.050079,731.890747 385.121033,734.503479 388.669525,735.920349 
	C401.502594,741.044739 414.309937,746.358765 427.473053,750.501831 
	C446.870422,756.606995 466.988861,759.580750 487.237091,760.879150 
	C510.452637,762.367737 533.626160,760.466309 556.493286,756.577271 
	C568.242493,754.579102 579.773254,750.789124 591.089905,746.898926 
	C602.188660,743.083618 612.918213,738.179077 623.731934,733.569824 
	C625.080322,732.994995 625.952148,731.302124 627.491821,730.128967 
	C627.753235,730.195312 628.014587,730.261597 628.276001,730.327942 
	C628.023010,729.940796 627.770081,729.553650 627.052490,728.915588 
	C626.932068,728.802002 626.743774,728.703552 626.713867,728.569702 
	C626.691895,728.471680 626.865723,728.230957 626.972839,728.217590 
	C629.032837,727.959045 631.095886,727.724670 632.802673,727.960388 
	C632.854736,728.195129 632.906860,728.429932 632.958923,728.664673 
	C633.331360,728.471252 633.703796,728.277771 634.775818,727.976379 
	C639.016724,725.385681 643.286255,722.838989 647.453308,720.134583 
	C647.857849,719.871887 647.629761,718.634277 648.859619,718.108643 
	C649.973633,717.798584 651.087646,717.488525 652.553223,716.939819 
	C652.301453,716.639832 652.049744,716.339783 650.997009,715.905762 
	C649.702698,716.215637 648.408386,716.525513 647.542480,716.129883 
	C649.348816,714.770813 651.155151,713.411743 652.961487,712.052673 
	C653.044434,712.537109 653.127319,713.021606 653.210266,713.506042 
	C654.774109,713.506042 656.864197,714.166382 657.820679,713.404175 
	C667.677856,705.549316 677.351807,697.464417 687.150635,689.407471 
	C691.394287,685.206726 695.637878,681.005981 700.318909,676.149048 
	C703.916565,671.206970 708.625977,666.881958 709.162903,660.233337 
	C709.169006,660.157715 709.452087,660.104431 710.424011,659.701721 
	C710.661987,660.488525 711.002441,661.614075 711.380798,662.864868 
	C786.615051,569.204407 782.710144,442.918335 732.789612,359.515533 
	C731.974426,360.446625 731.204590,361.325836 729.781921,362.950653 
	C729.781921,361.009583 729.894226,359.880157 729.755554,358.782410 
	C729.549194,357.147980 729.165527,355.535919 728.853577,353.854370 
	C728.853577,353.854370 728.790039,353.859161 728.901978,353.254944 
	C726.096436,349.783813 723.290894,346.312683 720.960205,343.196777 
	C721.194885,343.144714 721.429565,343.092651 721.664246,343.040588 
	C721.470825,342.668427 721.277466,342.296234 720.977539,341.232880 
	C717.155457,336.237152 713.333313,331.241394 709.502136,326.233795 
	C708.544067,327.641663 707.911377,328.571381 706.488892,330.661865 
	C705.616028,326.978241 705.038330,324.610107 704.500366,322.233002 
	C704.302429,321.358490 704.501770,320.205200 704.003113,319.617554 
	C700.179626,315.111206 696.151428,310.327393 691.678894,307.012146 
	C687.890320,304.203857 685.447632,300.603027 682.106628,297.696106 
	C680.463501,296.266449 677.714905,295.776031 676.624878,294.105042 
	C673.539978,289.375580 669.963135,286.085571 663.934082,286.143555 
	C662.604248,286.156342 661.264160,285.107086 660.780151,284.710175 
	C661.914246,284.372559 663.048279,284.034943 665.313171,283.360657 
	C662.329407,281.538940 660.589233,280.476501 658.473206,279.001892 
	C654.423950,276.404785 650.374756,273.807648 646.385010,271.261261 
	C646.385010,271.261261 646.446533,271.309662 645.996521,270.701599 
	C641.285217,267.788757 636.645508,264.747101 631.809326,262.058960 
	C630.682312,261.432556 628.868591,262.159271 627.406738,261.976257 
	C626.437988,261.854919 625.533264,261.222137 624.953064,260.527863 
	C625.074036,260.164825 625.195007,259.801758 625.315979,259.438751 
	C624.904602,259.588318 624.493286,259.737885 624.185913,259.148346 
	C616.043152,255.121368 608.193848,250.259445 599.686523,247.270004 
	C587.955566,243.147827 575.616394,240.791443 563.743225,237.030045 
	C550.837402,232.941528 537.447876,231.709473 524.237061,231.288284 
	C499.980164,230.514908 475.721130,230.385574 451.565125,235.279587 
	C436.080719,238.416733 421.104736,242.870316 406.372101,248.099579 
	C395.404633,251.992401 384.789093,257.223480 374.625854,262.941071 
	C363.785339,269.039703 353.600586,276.321808 343.268738,283.293518 
	C340.915131,284.881683 339.264343,287.475159 337.048340,289.314697 
	C335.174927,290.869843 332.920074,291.957031 330.890167,293.334076 
	C327.213318,295.828369 325.217468,301.099091 322.098022,302.559967 
	C316.225342,305.310303 313.214111,310.199524 308.765045,314.435028 
	C308.234802,315.002380 307.704529,315.569733 307.539032,317.188538 
	C307.380066,317.880127 307.221100,318.571686 306.697052,319.501190 
	C305.911560,320.337799 305.126068,321.174377 303.260834,322.341125 
	C302.889008,322.282776 302.517181,322.224426 301.826019,322.352905 
	C301.226471,323.042664 300.626923,323.732391 299.403442,325.123291 
	C299.261444,325.938293 299.119446,326.753265 299.098328,327.592224 
	C299.098328,327.592224 299.154175,327.371399 298.298157,327.006714 
	C297.865723,327.234009 297.303101,327.355316 297.019501,327.703766 
	C279.536865,349.181915 265.726624,372.843781 256.096252,398.778534 
	C252.077393,409.601349 249.691330,421.019836 246.244583,432.068207 
	C241.294067,447.936829 239.451477,464.260162 239.066971,480.740692 
	C238.534958,503.543304 238.518066,526.375671 243.236252,548.849976 
	C245.190842,558.160217 247.421494,567.463989 250.349945,576.503906 
	C253.249664,585.455200 257.016876,594.143066 260.719818,602.811401 
	C263.931458,610.329529 267.359161,617.775696 271.110718,625.036926 
	C274.548187,631.690247 278.142090,638.345581 282.506226,644.394531 
	C284.142181,646.662109 284.936218,651.848511 290.138916,650.044922 
	C290.182983,650.029602 290.722290,651.442932 291.030365,652.189209 
	C287.882385,653.007874 289.684052,654.827881 290.545593,655.880310 
	C296.086395,662.648926 301.771271,669.299622 307.451538,676.060547 
	C308.291229,676.185791 309.130951,676.311035 309.443451,677.169189 
	C310.639832,678.148560 311.836212,679.127991 313.054382,679.961792 
	C313.054382,679.961792 312.908783,679.939941 312.668671,680.682739 
	C313.122437,681.314514 313.576233,681.946289 314.191681,682.950745 
	C314.605530,683.286133 315.019379,683.621460 315.947571,684.378967 
	C316.315918,684.613281 316.684235,684.847595 317.011108,684.971924 
M336.840240,702.519836 
	C336.672424,702.511169 336.504608,702.502502 336.336792,702.493835 
	C336.416229,702.581055 336.495667,702.668274 336.840240,702.519836 
M706.280579,323.578186 
	C706.439941,323.608490 706.599365,323.638794 706.758728,323.669098 
	C706.694397,323.573303 706.630127,323.477478 706.280579,323.578186 
M709.273743,664.393372 
	C709.429321,664.408630 709.584900,664.423889 709.740479,664.439087 
	C709.670532,664.352051 709.600525,664.265076 709.273743,664.393372 
M665.433655,284.246674 
	C665.337585,284.315247 665.241455,284.383820 665.145386,284.452362 
	C665.215210,284.547546 665.274902,284.706818 665.357727,284.719910 
	C665.441101,284.733124 665.547485,284.601105 665.433655,284.246674 
z"/>
<path fill="#1BA402" opacity="1.000000" stroke="none" 
	d="
M349.245392,710.834412 
	C345.854065,712.736572 345.506165,709.928528 344.648682,707.304382 
	C344.099365,705.626892 343.570465,704.522583 343.041565,703.418213 
	C341.203400,702.573730 339.366821,701.725891 337.526154,700.886902 
	C336.971313,700.634033 335.894623,700.325500 335.917847,700.178162 
	C336.805328,694.545593 331.205170,696.916687 329.164124,694.484436 
	C329.018341,694.191589 329.063965,694.217407 329.061768,693.888000 
	C329.128784,692.968933 329.484406,692.083435 329.225403,691.832703 
	C322.038727,684.874451 314.789703,677.980652 306.824097,670.382812 
	C307.065582,672.698120 307.237213,674.343567 307.408844,675.989014 
	C301.771271,669.299622 296.086395,662.648926 290.545593,655.880310 
	C289.684052,654.827881 287.882385,653.007874 291.030365,652.189209 
	C290.722290,651.442932 290.182983,650.029602 290.138916,650.044922 
	C284.936218,651.848511 284.142181,646.662109 282.506226,644.394531 
	C278.142090,638.345581 274.548187,631.690247 271.110718,625.036926 
	C267.359161,617.775696 263.931458,610.329529 260.719818,602.811401 
	C257.016876,594.143066 253.249664,585.455200 250.349945,576.503906 
	C247.421494,567.463989 245.190842,558.160217 243.236252,548.849976 
	C238.518066,526.375671 238.534958,503.543304 239.066971,480.740692 
	C239.451477,464.260162 241.294067,447.936829 246.244583,432.068207 
	C249.691330,421.019836 252.077393,409.601349 256.096252,398.778534 
	C265.726624,372.843781 279.536865,349.181915 297.019501,327.703766 
	C297.303101,327.355316 297.865723,327.234009 298.513184,327.450317 
	C298.819122,328.620728 298.910095,329.347534 299.001038,330.074310 
	C299.493500,330.157776 299.985931,330.241272 300.478394,330.324738 
	C301.034058,327.605194 301.589691,324.885620 302.145355,322.166077 
	C302.517181,322.224426 302.889008,322.282776 303.772278,322.459320 
	C304.251831,322.732178 304.194702,322.886932 304.195160,323.041504 
	C304.195618,323.192932 304.254669,323.344116 304.287994,323.495422 
	C305.212708,322.084717 306.137421,320.673981 307.062103,319.263275 
	C307.221100,318.571686 307.380066,317.880127 307.667633,316.786224 
	C308.219116,315.676056 308.641968,314.968201 309.064819,314.260376 
	C313.214111,310.199524 316.225342,305.310303 322.098022,302.559967 
	C325.217468,301.099091 327.213318,295.828369 330.890167,293.334076 
	C332.920074,291.957031 335.174927,290.869843 337.048340,289.314697 
	C339.264343,287.475159 340.915131,284.881683 343.268738,283.293518 
	C353.600586,276.321808 363.785339,269.039703 374.625854,262.941071 
	C384.789093,257.223480 395.404633,251.992401 406.372101,248.099579 
	C421.104736,242.870316 436.080719,238.416733 451.565125,235.279587 
	C475.721130,230.385574 499.980164,230.514908 524.237061,231.288284 
	C537.447876,231.709473 550.837402,232.941528 563.743225,237.030045 
	C575.616394,240.791443 587.955566,243.147827 599.686523,247.270004 
	C608.193848,250.259445 616.043152,255.121368 624.211548,259.677521 
	C624.354614,260.412628 624.475525,260.616486 624.599915,260.818298 
	C625.533264,261.222137 626.437988,261.854919 627.406738,261.976257 
	C628.868591,262.159271 630.682312,261.432556 631.809326,262.058960 
	C636.645508,264.747101 641.285217,267.788757 645.953979,270.930328 
	C645.606018,271.200958 645.300537,271.242889 644.995056,271.284821 
	C645.028259,271.430603 645.061462,271.576385 645.094727,271.722168 
	C645.505005,271.551605 645.915222,271.381073 646.325500,271.210541 
	C650.374756,273.807648 654.423950,276.404785 658.532104,279.514465 
	C659.036987,281.533630 659.482910,283.040253 659.928833,284.546875 
	C661.264160,285.107086 662.604248,286.156342 663.934082,286.143555 
	C669.963135,286.085571 673.539978,289.375580 676.624878,294.105042 
	C677.714905,295.776031 680.463501,296.266449 682.106628,297.696106 
	C685.447632,300.603027 687.890320,304.203857 691.678894,307.012146 
	C696.151428,310.327393 700.179626,315.111206 704.003113,319.617554 
	C704.501770,320.205200 704.302429,321.358490 704.500366,322.233002 
	C705.038330,324.610107 705.616028,326.978241 706.488892,330.661865 
	C707.911377,328.571381 708.544067,327.641663 709.502136,326.233795 
	C713.333313,331.241394 717.155457,336.237152 720.881042,341.807800 
	C720.684814,342.535675 720.585083,342.688629 720.485291,342.841553 
	C723.290894,346.312683 726.096436,349.783813 729.064758,353.796692 
	C728.591736,354.696808 727.955933,355.055176 727.320129,355.413513 
	C727.195496,355.019043 727.070923,354.624512 726.946350,354.230011 
	C727.583313,354.124786 728.220337,354.019562 728.857300,353.914337 
	C729.165527,355.535919 729.549194,357.147980 729.755554,358.782410 
	C729.894226,359.880157 729.781921,361.009583 729.781921,362.950653 
	C731.204590,361.325836 731.974426,360.446625 732.789612,359.515533 
	C782.710144,442.918335 786.615051,569.204407 711.380798,662.864868 
	C711.002441,661.614075 710.661987,660.488525 710.424011,659.701721 
	C709.452087,660.104431 709.169006,660.157715 709.162903,660.233337 
	C708.625977,666.881958 703.916565,671.206970 699.823608,676.255859 
	C698.699402,675.364197 698.070496,674.365784 697.980774,674.223389 
	C692.475830,679.346069 687.154236,684.298218 680.668945,690.333252 
	C683.773132,689.902222 685.424927,689.672913 687.076721,689.443542 
	C677.351807,697.464417 667.677856,705.549316 657.820679,713.404175 
	C656.864197,714.166382 654.774109,713.506042 653.210266,713.506042 
	C653.127319,713.021606 653.044434,712.537109 652.961487,712.052673 
	C651.155151,713.411743 649.348816,714.770813 647.365112,716.586670 
	C647.400208,717.291809 647.569397,717.560364 647.695312,717.849243 
	C647.629761,718.634277 647.857849,719.871887 647.453308,720.134583 
	C643.286255,722.838989 639.016724,725.385681 634.196533,727.880554 
	C633.464233,727.684998 633.311279,727.585205 633.158264,727.485352 
	C631.095886,727.724670 629.032837,727.959045 626.972839,728.217590 
	C626.865723,728.230957 626.691895,728.471680 626.713867,728.569702 
	C626.743774,728.703552 626.932068,728.802002 627.200562,729.199036 
	C627.238708,729.693359 627.137451,729.908325 627.044800,730.127380 
	C625.952148,731.302124 625.080322,732.994995 623.731934,733.569824 
	C612.918213,738.179077 602.188660,743.083618 591.089905,746.898926 
	C579.773254,750.789124 568.242493,754.579102 556.493286,756.577271 
	C533.626160,760.466309 510.452637,762.367737 487.237091,760.879150 
	C466.988861,759.580750 446.870422,756.606995 427.473053,750.501831 
	C414.309937,746.358765 401.502594,741.044739 388.669525,735.920349 
	C385.121033,734.503479 382.050079,731.890747 378.677246,729.314392 
	C378.000977,728.507751 377.407501,728.213379 376.814026,727.918945 
	C373.612335,726.808105 370.410645,725.697266 367.126556,724.182495 
	C366.104156,722.843628 365.164185,721.908569 364.184448,720.996094 
	C364.144714,721.018677 364.069916,721.071167 363.989990,720.850220 
	C363.663574,720.175476 363.417053,719.721680 363.170532,719.267944 
	C363.325500,719.269226 363.480438,719.270569 363.635406,719.271912 
	C363.422333,719.573242 363.209259,719.874634 362.727814,720.402100 
	C362.280548,720.778992 362.101654,720.929749 361.922791,721.080566 
	C358.857910,719.107666 355.793030,717.134766 352.585541,714.597290 
	C352.251678,712.092102 352.246155,709.965942 349.245392,710.834412 
M615.617310,703.217957 
	C616.318237,702.808899 617.019104,702.399841 617.806519,701.161682 
	C618.979553,698.891418 620.471741,697.449829 623.597107,698.910522 
	C623.845215,698.012451 624.093323,697.114319 624.789551,695.784058 
	C628.501160,693.494751 632.212708,691.205444 636.382629,689.215393 
	C636.535461,689.315125 636.688293,689.414856 637.270203,689.825439 
	C639.266479,689.383179 641.262756,688.940918 643.258972,688.498657 
	C643.146606,687.982971 643.034302,687.467224 642.921936,686.951477 
	C642.088867,686.909912 641.255859,686.868286 640.171753,686.374817 
	C640.085510,686.225647 639.999329,686.076477 640.299133,685.366150 
	C642.792358,683.484436 645.184326,681.445557 647.802673,679.757935 
	C651.737244,677.221863 654.411804,672.240845 660.355164,673.300110 
	C660.966675,673.409058 662.208679,671.153870 662.805298,669.835938 
	C663.376709,668.573853 663.031311,666.642700 663.878845,665.802002 
	C668.313049,661.403564 673.865112,658.152954 677.114319,652.511108 
	C677.590942,651.683472 679.097229,651.448975 680.127075,650.940002 
	C681.254272,649.899414 681.375732,647.053528 682.815674,645.985962 
	C685.917419,643.686157 687.395386,640.565125 689.328918,637.500977 
	C693.612610,630.712097 698.435852,624.266418 702.919373,617.600281 
	C712.948303,602.689209 720.363403,586.444092 726.080383,569.509827 
	C731.608032,553.136536 735.428162,536.382385 737.334229,519.044189 
	C739.276611,501.375671 739.087219,483.819519 736.657349,466.454956 
	C734.421570,450.477112 731.651855,434.416321 725.048035,419.355652 
	C719.094971,405.779175 713.648865,391.980469 708.077942,377.928650 
	C708.117310,377.688019 708.176086,377.452240 708.377869,377.008057 
	C708.377869,377.008057 708.225342,376.595428 708.225342,376.595428 
	C708.225342,376.595428 707.774963,376.749542 707.320251,377.123260 
	C706.862183,377.492920 706.404114,377.862579 705.404541,377.776001 
	C703.168579,373.967255 701.366211,369.792603 698.558838,366.466034 
	C696.330994,363.826172 695.750061,361.675354 697.249573,358.770569 
	C694.880798,357.645355 691.938354,357.062988 690.257446,355.286774 
	C686.223816,351.024597 682.684937,346.274506 679.167847,341.556274 
	C678.241028,340.312927 678.119995,338.468994 677.574768,336.895874 
	C677.574768,336.895874 677.444092,336.949829 677.020996,336.272400 
	C675.589844,330.866821 672.526123,326.986053 666.740662,325.003387 
	C664.145020,323.815887 661.190979,323.078491 659.023743,321.352966 
	C653.444946,316.911255 648.701782,311.494263 642.449341,307.781219 
	C640.120789,306.398376 638.838074,303.288208 636.533508,301.822693 
	C633.493774,299.889709 629.917542,298.800476 626.150330,297.165527 
	C627.752014,295.717255 628.463013,295.074371 629.415710,294.212921 
	C628.256104,293.836517 626.820679,293.033630 626.537292,293.330505 
	C623.583801,296.424377 621.236023,293.681519 619.106262,292.426788 
	C603.601318,283.292419 587.221802,275.819214 570.051025,270.905640 
	C554.915405,266.574493 539.156433,264.035126 523.505249,261.979889 
	C498.113983,258.645660 472.959015,261.738312 448.276947,267.939606 
	C437.709503,270.594635 427.494385,274.718842 417.226593,278.469452 
	C412.599854,280.159515 408.296051,282.714294 403.732880,284.604309 
	C400.376465,285.994476 397.266876,289.893677 393.104401,286.204102 
	C392.544769,286.899719 391.857361,287.530029 391.459534,288.308350 
	C391.015533,289.177063 391.111328,290.718506 390.493500,291.036163 
	C386.886475,292.890839 384.022430,296.895020 379.029358,295.122711 
	C378.255768,294.848114 377.068085,295.740051 376.071899,296.092529 
	C376.104370,296.371918 376.136841,296.651337 376.169312,296.930756 
	C376.971863,297.011719 377.774414,297.092682 378.827972,297.625214 
	C378.914154,297.774292 379.000366,297.923401 378.707031,298.629486 
	C376.114929,299.564056 373.800140,304.242126 370.971985,298.798828 
	C369.399323,300.220917 368.148529,301.351959 366.327209,302.998901 
	C367.899536,303.083649 368.738129,303.128876 369.827606,303.625214 
	C369.913788,303.774170 369.999969,303.923096 369.701782,304.632385 
	C365.748810,306.799133 361.795837,308.965912 357.481415,311.330780 
	C357.982605,313.738770 353.303772,319.192017 346.789551,321.418854 
	C345.268280,321.634155 343.257538,321.305786 342.310211,322.158600 
	C338.149384,325.904419 334.165771,329.873901 330.409088,334.025757 
	C329.259308,335.296478 329.037933,337.407196 328.276245,339.442749 
	C328.276245,339.442749 328.634705,339.501129 328.634705,339.501129 
	C328.634705,339.501129 328.571899,339.074982 329.295197,339.086975 
	C329.533661,339.051270 329.772125,339.015564 329.958954,339.683441 
	C326.520660,343.729095 323.082397,347.774750 318.943268,351.631104 
	C317.336151,353.145172 315.729004,354.659210 313.878632,356.732513 
	C313.769440,357.786896 314.000397,359.051544 313.498596,359.863251 
	C308.269592,368.321930 302.922882,376.707794 297.566956,385.180115 
	C296.710999,384.239441 296.071106,383.536224 295.394501,382.792664 
	C294.955963,383.485748 294.164337,384.307983 294.316498,384.559662 
	C297.302704,389.498932 293.630890,393.159271 291.933319,397.141907 
	C288.261993,405.754883 283.751556,414.087555 280.922424,422.961487 
	C277.788452,432.791656 275.848389,443.041534 273.937805,453.211823 
	C271.951385,463.785767 269.905457,474.433075 269.159302,485.137115 
	C267.765167,505.137146 270.368958,524.968994 274.397858,544.518616 
	C276.345490,553.969238 279.629974,563.168091 282.671082,572.361267 
	C284.706329,578.513794 286.821198,584.755005 289.873169,590.433716 
	C297.946198,605.454895 306.548248,620.191772 315.074829,635.280762 
	C315.043152,635.333008 314.445129,636.319275 313.847137,637.305542 
	C314.690613,637.415588 315.618042,637.340027 316.359467,637.675598 
	C317.758636,638.308716 319.350189,638.910767 320.327209,640.003601 
	C322.607330,642.554199 324.502808,645.443604 326.679382,648.092896 
	C329.446350,651.460815 334.862457,654.898438 334.651764,658.001465 
	C334.205536,664.572693 338.291992,662.966736 341.369202,663.867737 
	C342.125763,664.089355 342.888641,664.540649 343.467072,665.080811 
	C349.901978,671.090027 355.618195,677.902954 363.471771,682.317932 
	C364.721405,683.020447 365.181427,686.140259 366.125214,686.197876 
	C370.093262,686.440186 372.039154,688.373718 373.654358,691.825317 
	C374.539825,693.717529 376.802856,695.359436 378.825226,696.247620 
	C383.858582,698.457886 389.311371,699.760132 394.232452,702.169067 
	C405.041962,707.460571 415.698883,712.836792 427.126038,716.969910 
	C439.747711,721.535034 452.530426,725.125488 465.610626,727.374878 
	C490.424500,731.641968 515.485535,731.611755 540.299255,727.644409 
	C553.452881,725.541382 566.414490,722.182434 579.096619,717.404236 
	C589.174194,713.607361 599.001465,709.492493 608.641113,704.781372 
	C610.578491,703.834534 612.758728,703.384705 614.760193,702.750854 
	C614.760193,702.750854 614.774780,702.830139 614.618347,703.012329 
	C614.618347,703.012329 614.763000,703.415588 614.763000,703.415588 
	C614.763000,703.415588 615.181152,703.226624 615.617310,703.217957 
M267.003845,484.636536 
	C267.168518,497.780975 267.333191,510.925385 267.497864,524.069824 
	C267.736694,524.055847 267.975555,524.041809 268.214386,524.027832 
	C268.214386,508.293793 268.214386,492.559753 268.214386,476.825745 
	C267.811096,476.827087 267.407837,476.828400 267.004547,476.829742 
	C267.004547,479.118225 267.004547,481.406677 267.003845,484.636536 
M515.406738,259.003815 
	C504.861084,259.003815 494.315430,259.003815 483.769775,259.003815 
	C483.772827,259.246338 483.775879,259.488831 483.778931,259.731354 
	C497.254791,259.731354 510.730682,259.731354 524.206543,259.731354 
	C524.208618,259.489014 524.210754,259.246674 524.212830,259.004333 
	C521.596375,259.004333 518.979919,259.004333 515.406738,259.003815 
M767.002686,493.526672 
	C767.002686,498.077087 767.002686,502.627472 767.002686,507.177887 
	C767.071716,507.170593 767.140686,507.163300 767.209717,507.156006 
	C767.209717,495.045319 767.209717,482.934631 767.209717,470.823944 
	C766.757751,470.834076 766.305786,470.844208 765.853821,470.854370 
	C766.236755,478.084534 766.619690,485.314728 767.002686,493.526672 
M516.133484,232.994614 
	C517.796814,232.994614 519.460144,232.994614 521.123535,232.994614 
	C521.110596,232.772644 521.097656,232.550674 521.084778,232.328705 
	C509.370514,232.328705 497.656250,232.328705 485.942017,232.328705 
	C485.942688,232.550323 485.943359,232.771957 485.944031,232.993576 
	C495.704834,232.993576 505.465637,232.993576 516.133484,232.994614 
M240.002533,489.562500 
	C240.002533,497.124634 240.002533,504.686768 240.002533,512.248901 
	C240.246780,512.245361 240.491013,512.241821 240.735260,512.238220 
	C240.735260,501.415802 240.735260,490.593323 240.735260,479.770874 
	C240.491058,479.768585 240.246872,479.766296 240.002670,479.764038 
	C240.002670,482.707031 240.002670,485.650024 240.002533,489.562500 
M740.964355,510.995544 
	C740.964355,500.591431 740.964355,490.187347 740.964355,479.783234 
	C740.737427,479.783936 740.510559,479.784637 740.283630,479.785309 
	C740.283630,490.462677 740.283630,501.140015 740.283630,511.817352 
	C740.485168,511.750946 740.686707,511.684509 740.964355,510.995544 
M497.589600,732.002258 
	C494.649353,732.002258 491.709137,732.002258 488.768890,732.002258 
	C488.771149,732.246216 488.773438,732.490234 488.775696,732.734192 
	C498.927582,732.734192 509.079437,732.734192 519.231323,732.734192 
	C519.235291,732.490234 519.239319,732.246216 519.243286,732.002258 
	C512.349670,732.002258 505.456085,732.002258 497.589600,732.002258 
M612.488464,704.621704 
	C612.488464,704.621704 612.586853,704.456726 612.586853,704.456726 
	C612.586853,704.456726 612.395752,704.476379 612.488464,704.621704 
M610.378235,705.488281 
	C610.378235,705.488281 610.543213,705.586731 610.543213,705.586731 
	C610.543213,705.586731 610.523682,705.395691 610.378235,705.488281 
M723.278992,350.473969 
	C723.278992,350.473969 723.592712,350.622711 723.592712,350.622711 
	C723.592712,350.622711 723.524536,350.282532 723.278992,350.473969 
M354.651367,712.515808 
	C354.651367,712.515808 354.443237,712.400696 354.443237,712.400696 
	C354.443237,712.400696 354.475647,712.636292 354.651367,712.515808 
M357.721588,714.525024 
	C357.721588,714.525024 357.408356,714.376709 357.408356,714.376709 
	C357.408356,714.376709 357.476196,714.715698 357.721588,714.525024 
M641.274475,269.474304 
	C641.274475,269.474304 641.590149,269.622498 641.590149,269.622498 
	C641.590149,269.622498 641.521118,269.282715 641.274475,269.474304 
M263.524719,607.277344 
	C263.524719,607.277344 263.376099,607.591309 263.376099,607.591309 
	C263.376099,607.591309 263.715698,607.523254 263.524719,607.277344 
M276.721619,628.524902 
	C276.721619,628.524902 276.408295,628.376404 276.408295,628.376404 
	C276.408295,628.376404 276.476074,628.715454 276.721619,628.524902 
M626.277710,698.474670 
	C626.277710,698.474670 626.591064,698.622864 626.591064,698.622864 
	C626.591064,698.622864 626.523010,698.283936 626.277710,698.474670 
z"/>
<path fill="#083301" opacity="1.000000" stroke="none" 
	d="
M307.430176,676.024780 
	C307.237213,674.343567 307.065582,672.698120 306.824097,670.382812 
	C314.789703,677.980652 322.038727,684.874451 329.225403,691.832703 
	C329.484406,692.083435 329.128784,692.968933 328.598022,693.887573 
	C327.228943,694.145264 326.321442,694.073914 325.413910,694.002625 
	C323.692017,691.885437 321.970123,689.768188 320.112091,687.130005 
	C318.950989,686.077026 317.926025,685.545105 316.901062,685.013245 
	C316.901062,685.013245 317.011108,684.971924 316.824585,684.760986 
	C316.236450,684.352295 315.834869,684.154602 315.433258,683.956848 
	C315.019379,683.621460 314.605530,683.286133 314.004578,682.408203 
	C313.514587,681.223816 313.211670,680.581909 312.908752,679.939941 
	C312.908783,679.939941 313.054382,679.961792 312.879211,679.734375 
	C311.792908,678.483459 310.881775,677.459900 309.970642,676.436340 
	C309.130951,676.311035 308.291229,676.185791 307.430176,676.024780 
z"/>
<path fill="#083101" opacity="1.000000" stroke="none" 
	d="
M687.113647,689.425537 
	C685.424927,689.672913 683.773132,689.902222 680.668945,690.333252 
	C687.154236,684.298218 692.475830,679.346069 697.980774,674.223389 
	C698.070496,674.365784 698.699402,675.364197 699.604919,676.583984 
	C695.637878,681.005981 691.394287,685.206726 687.113647,689.425537 
z"/>
<path fill="#158201" opacity="1.000000" stroke="none" 
	d="
M660.354492,284.628510 
	C659.482910,283.040253 659.036987,281.533630 658.720093,279.720551 
	C660.589233,280.476501 662.329407,281.538940 665.313171,283.360657 
	C663.048279,284.034943 661.914246,284.372559 660.354492,284.628510 
z"/>
<path fill="#147B01" opacity="1.000000" stroke="none" 
	d="
M342.613770,703.322083 
	C343.570465,704.522583 344.099365,705.626892 344.710388,706.911682 
	C342.836761,706.775452 340.881042,706.458801 338.925323,706.142212 
	C338.893219,705.550659 338.861084,704.959106 338.828949,704.367554 
	C339.947998,703.987000 341.067017,703.606445 342.613770,703.322083 
z"/>
<path fill="#083101" opacity="1.000000" stroke="none" 
	d="
M301.985687,322.259491 
	C301.589691,324.885620 301.034058,327.605194 300.478394,330.324738 
	C299.985931,330.241272 299.493500,330.157776 299.001038,330.074310 
	C298.910095,329.347534 298.819122,328.620728 298.941162,327.632690 
	C299.154175,327.371399 299.098328,327.592224 299.235718,327.212738 
	C299.591187,326.029541 299.809296,325.225861 300.027374,324.422150 
	C300.626923,323.732391 301.226471,323.042664 301.985687,322.259491 
z"/>
<path fill="#147B01" opacity="1.000000" stroke="none" 
	d="
M349.278900,711.229736 
	C352.246155,709.965942 352.251678,712.092102 352.332184,714.363281 
	C351.251770,713.671082 350.282074,712.648071 349.278900,711.229736 
z"/>
<path fill="#147B01" opacity="1.000000" stroke="none" 
	d="
M364.224182,720.973572 
	C365.164185,721.908569 366.104156,722.843628 366.886261,723.910706 
	C365.995026,723.198975 365.261688,722.355164 364.391968,721.204468 
	C364.255554,720.897644 364.224182,720.973572 364.224182,720.973572 
z"/>
<path fill="#083101" opacity="1.000000" stroke="none" 
	d="
M306.879578,319.382233 
	C306.137421,320.673981 305.212708,322.084717 304.287994,323.495422 
	C304.254669,323.344116 304.195618,323.192932 304.195160,323.041504 
	C304.194702,322.886932 304.251831,322.732178 304.312164,322.294250 
	C305.126068,321.174377 305.911560,320.337799 306.879578,319.382233 
z"/>
<path fill="#158201" opacity="1.000000" stroke="none" 
	d="
M648.277466,717.978943 
	C647.569397,717.560364 647.400208,717.291809 647.150940,716.939453 
	C648.408386,716.525513 649.702698,716.215637 651.496582,716.258057 
	C652.064697,716.799805 652.133179,716.989136 652.201660,717.178467 
	C651.087646,717.488525 649.973633,717.798584 648.277466,717.978943 
z"/>
<path fill="#1BA402" opacity="1.000000" stroke="none" 
	d="
M309.707031,676.802734 
	C310.881775,677.459900 311.792908,678.483459 312.868317,679.807190 
	C311.836212,679.127991 310.639832,678.148560 309.707031,676.802734 
z"/>
<path fill="#083101" opacity="1.000000" stroke="none" 
	d="
M308.914917,314.347717 
	C308.641968,314.968201 308.219116,315.676056 307.485260,316.260498 
	C307.704529,315.569733 308.234802,315.002380 308.914917,314.347717 
z"/>
<path fill="#1AA002" opacity="1.000000" stroke="none" 
	d="
M316.997925,685.433655 
	C317.926025,685.545105 318.950989,686.077026 320.270203,686.820801 
	C319.407898,686.639771 318.251343,686.246887 316.997925,685.433655 
z"/>
<path fill="#147B01" opacity="1.000000" stroke="none" 
	d="
M377.049774,728.120483 
	C377.407501,728.213379 378.000977,728.507751 378.670654,728.929321 
	C378.259735,728.811646 377.772644,728.566772 377.049774,728.120483 
z"/>
<path fill="#1AA002" opacity="1.000000" stroke="none" 
	d="
M325.651184,694.186768 
	C326.321442,694.073914 327.228943,694.145264 328.600220,694.216980 
	C329.063965,694.217407 329.018341,694.191589 328.997253,694.176025 
	C327.946899,694.230652 326.917694,694.300781 325.651184,694.186768 
z"/>
<path fill="#199A02" opacity="1.000000" stroke="none" 
	d="
M624.776489,260.673096 
	C624.475525,260.616486 624.354614,260.412628 624.159546,260.047058 
	C624.493286,259.737885 624.904602,259.588318 625.315979,259.438721 
	C625.195007,259.801758 625.074036,260.164825 624.776489,260.673096 
z"/>
<path fill="#1AA102" opacity="1.000000" stroke="none" 
	d="
M627.268311,730.128174 
	C627.137451,729.908325 627.238708,729.693359 627.432861,729.324463 
	C627.770081,729.553650 628.023010,729.940796 628.276001,730.327942 
	C628.014587,730.261597 627.753235,730.195312 627.268311,730.128174 
z"/>
<path fill="#1BA402" opacity="1.000000" stroke="none" 
	d="
M312.788696,680.311340 
	C313.211670,680.581909 313.514587,681.223816 313.923767,682.221924 
	C313.576233,681.946289 313.122437,681.314514 312.788696,680.311340 
z"/>
<path fill="#1BA402" opacity="1.000000" stroke="none" 
	d="
M364.184448,720.996094 
	C364.224182,720.973572 364.255554,720.897644 364.230164,720.866577 
	C363.602448,721.099426 363.000183,721.363281 362.160339,721.353882 
	C362.101654,720.929749 362.280548,720.778992 362.838043,720.620239 
	C363.459717,720.841980 363.744141,720.994995 364.069916,721.071167 
	C364.069916,721.071167 364.144714,721.018677 364.184448,720.996094 
z"/>
<path fill="#1BA402" opacity="1.000000" stroke="none" 
	d="
M299.715393,324.772705 
	C299.809296,325.225861 299.591187,326.029541 299.175293,327.200745 
	C299.119446,326.753265 299.261444,325.938293 299.715393,324.772705 
z"/>
<path fill="#147B01" opacity="1.000000" stroke="none" 
	d="
M336.707672,702.637634 
	C336.495667,702.668274 336.416229,702.581055 336.336792,702.493835 
	C336.504608,702.502502 336.672424,702.511169 336.707672,702.637634 
z"/>
<path fill="#1BA402" opacity="1.000000" stroke="none" 
	d="
M706.423218,323.479919 
	C706.630127,323.477478 706.694397,323.573303 706.758728,323.669098 
	C706.599365,323.638794 706.439941,323.608490 706.423218,323.479919 
z"/>
<path fill="#1BA402" opacity="1.000000" stroke="none" 
	d="
M720.934326,342.153381 
	C721.277466,342.296234 721.470825,342.668427 721.664246,343.040588 
	C721.429565,343.092651 721.194885,343.144714 720.722778,343.019165 
	C720.585083,342.688629 720.684814,342.535675 720.934326,342.153381 
z"/>
<path fill="#158201" opacity="1.000000" stroke="none" 
	d="
M651.897095,716.325073 
	C652.049744,716.339783 652.301453,716.639832 652.377441,717.059143 
	C652.133179,716.989136 652.064697,716.799805 651.897095,716.325073 
z"/>
<path fill="#1BA402" opacity="1.000000" stroke="none" 
	d="
M633.846680,727.934509 
	C633.703796,728.277771 633.331360,728.471252 632.958984,728.664673 
	C632.906860,728.429932 632.854736,728.195129 632.980469,727.722900 
	C633.311279,727.585205 633.464233,727.684998 633.846680,727.934509 
z"/>
<path fill="#1BA402" opacity="1.000000" stroke="none" 
	d="
M709.402161,664.285706 
	C709.600525,664.265076 709.670532,664.352051 709.740479,664.439087 
	C709.584900,664.423889 709.429321,664.408630 709.402161,664.285706 
z"/>
<path fill="#158201" opacity="1.000000" stroke="none" 
	d="
M665.538696,284.389709 
	C665.547485,284.601105 665.441101,284.733124 665.357727,284.719910 
	C665.274902,284.706818 665.215210,284.547546 665.145386,284.452362 
	C665.241455,284.383820 665.337585,284.315247 665.538696,284.389709 
z"/>
<path fill="#1AA002" opacity="1.000000" stroke="none" 
	d="
M315.690430,684.167908 
	C315.834869,684.154602 316.236450,684.352295 316.845306,684.815979 
	C316.684235,684.847595 316.315918,684.613281 315.690430,684.167908 
z"/>
<path fill="#000000" opacity="1.000000" stroke="none" 
	d="
M640.422791,686.826721 
	C641.255859,686.868286 642.088867,686.909912 642.921936,686.951477 
	C643.034302,687.467224 643.146606,687.982971 643.258972,688.498657 
	C641.262756,688.940918 639.266479,689.383179 637.233154,689.432617 
	C637.144043,688.805359 637.092041,688.570801 637.040039,688.336304 
	C636.668091,688.529541 636.296204,688.722778 635.924316,688.916138 
	C632.212708,691.205444 628.501160,693.494751 624.293823,696.230347 
	C623.583801,697.485046 623.369507,698.293518 623.155273,699.101990 
	C620.471741,697.449829 618.979553,698.891418 617.365540,701.390503 
	C616.225403,701.981445 615.526245,702.343628 614.827026,702.705750 
	C612.758728,703.384705 610.578491,703.834534 608.641113,704.781372 
	C599.001465,709.492493 589.174194,713.607361 579.096619,717.404236 
	C566.414490,722.182434 553.452881,725.541382 540.299255,727.644409 
	C515.485535,731.611755 490.424500,731.641968 465.610626,727.374878 
	C452.530426,725.125488 439.747711,721.535034 427.126038,716.969910 
	C415.698883,712.836792 405.041962,707.460571 394.232452,702.169067 
	C389.311371,699.760132 383.858582,698.457886 378.825226,696.247620 
	C376.802856,695.359436 374.539825,693.717529 373.654358,691.825317 
	C372.039154,688.373718 370.093262,686.440186 366.125214,686.197876 
	C365.181427,686.140259 364.721405,683.020447 363.471771,682.317932 
	C355.618195,677.902954 349.901978,671.090027 343.467072,665.080811 
	C342.888641,664.540649 342.125763,664.089355 341.369202,663.867737 
	C338.291992,662.966736 334.205536,664.572693 334.651764,658.001465 
	C334.862457,654.898438 329.446350,651.460815 326.679382,648.092896 
	C324.502808,645.443604 322.607330,642.554199 320.327209,640.003601 
	C319.350189,638.910767 317.758636,638.308716 316.359467,637.675598 
	C315.618042,637.340027 314.690613,637.415588 313.847107,637.305542 
	C314.445129,636.319275 315.043152,635.333008 315.074829,635.280762 
	C306.548248,620.191772 297.946198,605.454895 289.873169,590.433716 
	C286.821198,584.755005 284.706329,578.513794 282.671082,572.361267 
	C279.629974,563.168091 276.345490,553.969238 274.397858,544.518616 
	C270.368958,524.968994 267.765167,505.137146 269.159302,485.137115 
	C269.905457,474.433075 271.951385,463.785767 273.937805,453.211823 
	C275.848389,443.041534 277.788452,432.791656 280.922424,422.961487 
	C283.751556,414.087555 288.261993,405.754883 291.933319,397.141907 
	C293.630890,393.159271 297.302704,389.498932 294.316498,384.559662 
	C294.164337,384.307983 294.955963,383.485748 295.394501,382.792664 
	C296.071106,383.536224 296.710999,384.239441 297.566956,385.180115 
	C302.922882,376.707794 308.269592,368.321930 313.498596,359.863251 
	C314.000397,359.051544 313.769440,357.786896 314.395599,356.322845 
	C315.151306,355.771790 315.390015,355.630371 315.502502,355.750183 
	C315.371735,356.285126 315.367188,356.558807 315.362671,356.832489 
	C315.450562,356.804779 315.616760,356.769440 315.614899,356.750488 
	C315.574127,356.332489 315.514771,355.916321 315.801697,355.582855 
	C317.310974,354.384094 318.477539,353.102234 319.644104,351.820404 
	C323.082397,347.774750 326.520660,343.729095 329.951080,339.344788 
	C329.943207,339.006134 329.970337,339.073151 330.341125,338.852173 
	C330.815735,337.898041 330.919586,337.164917 331.355225,336.578308 
	C334.954834,333.860687 338.354980,331.129486 341.429382,328.070801 
	C342.773499,326.733521 343.451263,324.726410 344.782593,323.278748 
	C345.780121,323.012787 346.426666,322.491516 347.040283,321.969055 
	C347.007324,321.967896 347.014832,322.033356 347.014832,322.033356 
	C353.303772,319.192017 357.982605,313.738770 357.481415,311.330780 
	C361.795837,308.965912 365.748810,306.799133 370.086731,304.253235 
	C370.173340,303.640778 369.875031,303.407410 369.576721,303.174072 
	C368.738129,303.128876 367.899536,303.083649 366.327209,302.998901 
	C368.148529,301.351959 369.399323,300.220917 370.971985,298.798828 
	C373.800140,304.242126 376.114929,299.564056 379.089752,298.251953 
	C379.173981,297.640839 378.875458,297.407257 378.576965,297.173645 
	C377.774414,297.092682 376.971863,297.011719 376.169312,296.930756 
	C376.136841,296.651337 376.104370,296.371918 376.071899,296.092529 
	C377.068085,295.740051 378.255768,294.848114 379.029358,295.122711 
	C384.022430,296.895020 386.886475,292.890839 390.493500,291.036163 
	C391.111328,290.718506 391.015533,289.177063 391.459534,288.308350 
	C391.857361,287.530029 392.544769,286.899719 393.104401,286.204102 
	C397.266876,289.893677 400.376465,285.994476 403.732880,284.604309 
	C408.296051,282.714294 412.599854,280.159515 417.226593,278.469452 
	C427.494385,274.718842 437.709503,270.594635 448.276947,267.939606 
	C472.959015,261.738312 498.113983,258.645660 523.505249,261.979889 
	C539.156433,264.035126 554.915405,266.574493 570.051025,270.905640 
	C587.221802,275.819214 603.601318,283.292419 619.106262,292.426788 
	C621.236023,293.681519 623.583801,296.424377 626.537292,293.330505 
	C626.820679,293.033630 628.256104,293.836517 629.415710,294.212921 
	C628.463013,295.074371 627.752014,295.717255 626.150330,297.165527 
	C629.917542,298.800476 633.493774,299.889709 636.533508,301.822693 
	C638.838074,303.288208 640.120789,306.398376 642.449341,307.781219 
	C648.701782,311.494263 653.444946,316.911255 659.023743,321.352966 
	C661.190979,323.078491 664.145020,323.815887 666.746704,325.353333 
	C666.589722,326.030609 666.660217,326.274597 666.721069,326.860718 
	C667.840210,328.202667 669.202454,329.119232 670.410522,330.346252 
	C671.818726,332.253906 673.381104,333.851074 674.662598,335.651245 
	C675.464172,336.203125 676.546509,336.552002 677.628906,336.900879 
	C678.119995,338.468994 678.241028,340.312927 679.167847,341.556274 
	C682.684937,346.274506 686.223816,351.024597 690.257446,355.286774 
	C691.938354,357.062988 694.880798,357.645355 697.249573,358.770569 
	C695.750061,361.675354 696.330994,363.826172 698.558838,366.466034 
	C701.366211,369.792603 703.168579,373.967255 705.789001,378.252899 
	C706.620056,379.116150 707.066589,379.502472 707.513184,379.888824 
	C707.668518,379.352478 707.823853,378.816132 707.979187,378.279785 
	C713.648865,391.980469 719.094971,405.779175 725.048035,419.355652 
	C731.651855,434.416321 734.421570,450.477112 736.657349,466.454956 
	C739.087219,483.819519 739.276611,501.375671 737.334229,519.044189 
	C735.428162,536.382385 731.608032,553.136536 726.080383,569.509827 
	C720.363403,586.444092 712.948303,602.689209 702.919373,617.600281 
	C698.435852,624.266418 693.612610,630.712097 689.328918,637.500977 
	C687.395386,640.565125 685.917419,643.686157 682.815674,645.985962 
	C681.375732,647.053528 681.254272,649.899414 680.127075,650.940002 
	C679.097229,651.448975 677.590942,651.683472 677.114319,652.511108 
	C673.865112,658.152954 668.313049,661.403564 663.878845,665.802002 
	C663.031311,666.642700 663.376709,668.573853 662.805298,669.835938 
	C662.208679,671.153870 660.966675,673.409058 660.355164,673.300110 
	C654.411804,672.240845 651.737244,677.221863 647.802673,679.757935 
	C645.184326,681.445557 642.792358,683.484436 639.913208,685.745789 
	C639.825745,686.359192 640.124268,686.592957 640.422791,686.826721 
M612.967285,459.969757 
	C612.967285,459.969757 612.970337,460.071564 613.712097,459.630676 
	C613.815430,458.898071 613.918762,458.165466 614.460083,457.876251 
	C615.571045,457.214661 616.682068,456.553101 618.234436,455.247070 
	C626.409546,445.258240 631.540955,433.568481 635.816589,421.637024 
	C640.168701,409.491791 643.371521,396.929871 646.949829,384.513580 
	C650.749207,371.330780 656.556030,359.114136 664.597107,348.030457 
	C666.637878,345.217438 666.955444,343.174713 664.690063,341.197327 
	C662.993591,341.519501 661.631470,341.778168 659.882690,342.035339 
	C659.004578,342.374115 658.126526,342.712921 657.554749,344.174377 
	C657.369019,344.893250 657.183228,345.612091 656.603149,346.592987 
	C655.509460,347.729706 654.415833,348.866425 652.825867,350.553070 
	C649.545593,351.870392 646.242371,353.134064 642.994080,354.525909 
	C641.148560,355.316589 639.480896,356.614777 637.582764,357.174530 
	C626.188721,360.534790 614.530029,360.497070 602.838623,359.477539 
	C590.003235,358.358215 577.348694,359.094757 564.996277,362.966888 
	C563.285034,363.503296 561.765137,364.650513 559.362305,365.755035 
	C558.828125,366.271301 558.293945,366.787567 557.076111,366.731018 
	C555.313660,367.077911 553.324890,367.020142 551.834595,367.853668 
	C548.458923,369.741760 545.328918,372.069061 541.647217,374.565216 
	C540.267822,376.028473 538.888428,377.491760 536.841675,379.678864 
	C534.386292,382.795319 531.229614,385.588928 529.616333,389.093109 
	C525.836731,397.302734 522.179016,405.667542 519.588196,414.304352 
	C514.522095,431.192657 513.674194,448.676666 514.103577,466.211945 
	C514.123352,467.020020 515.615967,467.792023 516.388550,468.536469 
	C516.388550,468.536469 516.388306,468.538177 516.265015,469.156067 
	C517.557983,467.858704 518.851013,466.561310 519.894104,465.514709 
	C519.891235,465.498352 520.088562,466.625641 520.285828,467.752930 
	C521.440491,466.217896 521.709595,464.563049 522.385254,463.095428 
	C526.132385,454.956085 530.114380,446.921906 533.713745,438.719116 
	C534.912048,435.988373 535.216309,432.865356 536.374939,430.178375 
	C536.524719,430.261841 536.674500,430.345276 536.619141,430.936768 
	C536.716309,431.600769 536.813477,432.264771 536.448486,433.172821 
	C536.402649,433.573730 536.356873,433.974609 536.311035,434.375549 
	C536.760437,434.154022 537.209839,433.932526 538.151489,433.279419 
	C538.775574,432.190796 539.399658,431.102173 539.960388,430.008759 
	C539.960388,430.008759 539.970398,430.071533 540.712341,429.630737 
	C540.815613,428.898102 540.918884,428.165497 541.661072,427.707245 
	C543.261230,426.492065 544.861389,425.276886 547.227844,423.243774 
	C552.930969,421.789948 551.220886,414.942017 555.401001,411.207428 
	C556.435852,415.563171 558.622192,415.106903 560.286377,413.043091 
	C562.826904,409.892548 569.448792,410.414001 568.428101,404.055939 
	C568.392517,403.834045 569.133179,403.403351 569.572693,403.202698 
	C573.159424,401.565186 576.705750,399.810944 580.395081,398.445557 
	C581.344910,398.094055 582.758789,398.996582 585.236633,399.670258 
	C581.730713,402.593689 579.413696,404.846008 576.780884,406.633057 
	C574.026306,408.502777 570.968140,409.925293 568.080383,411.574158 
	C568.243103,412.041931 568.405823,412.509735 567.758057,412.500946 
	C566.979309,413.009888 566.200500,413.518829 565.213623,414.065430 
	C565.213623,414.065430 565.032654,414.425629 564.387146,414.875183 
	C563.557739,416.062469 562.728333,417.249725 561.311462,418.433167 
	C560.346375,419.290741 559.381287,420.148285 557.716675,421.806000 
	C551.784973,429.413574 544.424683,436.103638 542.308105,446.155182 
	C542.049500,447.383362 541.167542,448.526489 540.413147,449.595123 
	C538.328552,452.547760 535.532104,455.169434 534.134155,458.404602 
	C528.965759,470.365234 524.343323,482.560303 519.328918,494.589447 
	C515.707886,503.276154 511.506073,511.728180 508.080780,520.487244 
	C504.150055,530.538757 500.789734,540.813416 497.183411,550.991699 
	C495.466766,555.836731 493.549591,560.622314 492.085449,565.542664 
	C489.518402,574.169312 487.230286,582.878967 484.577484,592.447876 
	C483.793793,589.032593 483.417664,586.769836 482.752197,584.595642 
	C478.775879,571.604248 474.725922,558.635437 470.714325,545.654846 
	C466.967957,533.532288 463.441620,521.336670 459.420410,509.306213 
	C457.241730,502.788177 454.353241,496.494385 451.570801,490.194061 
	C446.679535,479.118744 441.788452,468.037018 436.549072,457.125153 
	C434.676483,453.225159 431.600616,449.920502 429.440155,446.135132 
	C427.926086,443.482269 427.232788,440.362488 425.732666,437.699158 
	C425.316650,436.960602 423.328583,437.107513 422.049286,436.877808 
	C422.049286,436.877808 422.014160,436.897217 422.448578,436.451050 
	C421.213593,433.729492 419.978577,431.007965 418.318268,427.638947 
	C417.151520,426.845428 415.984741,426.051910 415.408173,424.760162 
	C412.951782,421.799225 410.509888,418.826019 408.023773,415.890320 
	C407.638947,415.435913 406.857330,415.259033 406.592041,414.772369 
	C405.584961,412.924896 404.714508,411.002930 403.468719,408.658142 
	C401.750122,407.038330 400.031555,405.418518 397.651489,403.114929 
	C389.041260,396.209839 381.000031,388.376953 371.665771,382.652435 
	C361.711639,376.547760 350.583740,372.324951 339.814819,367.632721 
	C338.783752,367.183533 334.866211,364.931946 334.373871,369.825653 
	C334.225769,369.911804 334.077698,369.997986 333.357483,370.420135 
	C333.306274,372.466125 333.118774,374.473969 336.054932,374.867981 
	C336.829865,374.971985 337.576172,376.099060 338.129181,376.899048 
	C339.975708,379.570160 341.539612,382.456085 343.551758,384.989716 
	C350.391296,393.601807 357.788910,401.801697 364.198059,410.716431 
	C371.631653,421.056061 378.246124,431.984589 385.677521,443.185059 
	C386.484314,443.326385 387.291077,443.467743 387.854004,444.491394 
	C387.988831,445.878021 387.751160,447.443573 388.317505,448.622986 
	C392.816833,457.992798 397.485199,467.281281 402.065948,476.612274 
	C403.829163,480.204010 405.767090,483.741577 407.159119,487.477631 
	C410.438141,496.278076 413.491730,505.164124 416.535065,514.050293 
	C420.554291,525.785950 424.977966,537.415222 428.301178,549.348206 
	C431.713867,561.602478 433.976746,574.175232 436.810425,586.593140 
	C438.173187,592.565125 439.868439,598.465759 441.083405,604.465515 
	C442.045074,609.214539 442.503906,614.065491 443.359741,619.718750 
	C443.627808,620.812622 443.895905,621.906433 444.329834,623.717957 
	C444.607971,625.145142 444.886078,626.572388 445.105377,628.785217 
	C446.124878,633.523560 447.144379,638.261963 448.086639,643.687622 
	C448.779053,647.458252 449.471466,651.228943 450.084595,655.671387 
	C451.021210,658.465759 451.957825,661.260193 453.123505,664.589966 
	C454.042145,667.407166 454.960785,670.224426 455.768250,673.614868 
	C455.805389,674.423157 455.842560,675.231384 455.981628,676.589355 
	C456.281647,677.740356 456.581635,678.891296 456.990082,680.650146 
	C457.714844,684.099670 458.439575,687.549194 459.052277,691.643799 
	C459.423431,692.851562 459.794586,694.059265 460.467865,695.915649 
	C461.288025,697.305664 462.108215,698.695618 463.126160,700.471130 
	C463.359192,700.172791 463.592255,699.874451 463.657928,699.113770 
	C463.717133,698.530945 463.776337,697.948059 464.150940,696.934814 
	C464.304718,696.870850 464.472870,696.736755 464.607910,696.764465 
	C464.723419,696.788086 464.842255,696.983704 464.889130,697.126465 
	C465.625061,699.368347 465.747620,702.987610 467.182892,703.616516 
	C472.847839,706.099243 478.461304,704.226501 483.442322,701.114319 
	C487.200745,698.766235 492.390137,697.092529 490.584900,690.652771 
	C490.381470,689.927063 491.801056,688.746338 492.551331,687.655518 
	C493.291595,688.870117 493.826935,689.748413 494.415436,690.713989 
	C499.579224,683.846863 502.687225,675.126160 504.769165,664.296570 
	C507.970184,647.645996 511.598145,631.078064 514.944458,614.454834 
	C518.700745,595.795227 522.154297,577.072632 526.108215,558.455750 
	C528.576599,546.833801 531.610840,535.326294 534.612976,523.825439 
	C536.470154,516.710571 539.166748,509.794434 540.694336,502.620453 
	C541.884216,497.032349 544.411377,493.306305 549.824951,491.440582 
	C555.032349,489.645996 560.161438,487.625427 565.340027,485.745667 
	C573.883728,482.644440 582.461670,479.635651 590.969910,476.440674 
	C592.508179,475.863068 593.781250,474.579315 595.205566,473.601837 
	C594.171936,472.652954 593.513428,472.048401 592.476379,471.096405 
	C593.872437,470.772278 595.240051,470.083862 595.594482,470.430725 
	C598.638062,473.408997 600.811279,470.467804 603.010620,469.297577 
	C605.160950,468.153381 606.945984,466.322601 609.299683,464.503937 
	C609.881348,463.535767 610.463074,462.567566 611.741333,461.530090 
	C612.183899,461.008942 612.626526,460.487793 612.967285,459.969757 
M695.348694,361.553192 
	C695.658203,361.486115 695.967712,361.419006 696.277222,361.351898 
	C695.952332,361.241516 695.627441,361.131104 695.348694,361.553192 
M664.355103,325.475311 
	C664.514648,325.498322 664.674194,325.521332 664.833801,325.544312 
	C664.765442,325.454041 664.697144,325.363800 664.355103,325.475311 
M658.578186,671.719116 
	C658.673523,671.654846 658.768921,671.590576 658.864258,671.526367 
	C658.799255,671.431458 658.745850,671.273987 658.665955,671.259094 
	C658.584961,671.244019 658.477722,671.369995 658.578186,671.719116 
M359.421753,311.280945 
	C359.326447,311.345184 359.231171,311.409393 359.135864,311.473602 
	C359.200867,311.568481 359.254211,311.726013 359.334045,311.740845 
	C359.415009,311.755859 359.522186,311.629974 359.421753,311.280945 
M422.358948,433.943054 
	C422.254608,433.844208 422.150299,433.745361 422.358948,433.943054 
M554.157715,416.499237 
	C554.317993,416.509125 554.478333,416.518982 554.638611,416.528839 
	C554.563538,416.444611 554.488403,416.360352 554.157715,416.499237 
M492.273499,692.393616 
	C492.429291,692.408813 492.585083,692.424011 492.740875,692.439148 
	C492.670746,692.352051 492.600647,692.264954 492.273499,692.393616 
z"/>
<path fill="#083301" opacity="1.000000" stroke="none" 
	d="
M344.431641,323.023468 
	C343.451263,324.726410 342.773499,326.733521 341.429382,328.070801 
	C338.354980,331.129486 334.954834,333.860687 331.183167,336.892883 
	C330.442993,337.731659 330.206665,338.402405 329.970337,339.073151 
	C329.970337,339.073151 329.943207,339.006134 329.976898,338.992981 
	C329.772125,339.015564 329.533661,339.051270 328.896362,339.119934 
	C328.497528,339.152924 328.391388,339.133240 328.391388,339.133240 
	C329.037933,337.407196 329.259308,335.296478 330.409088,334.025757 
	C334.165771,329.873901 338.149384,325.904419 342.310211,322.158600 
	C343.257538,321.305786 345.268280,321.634155 346.902191,321.726105 
	C347.014832,322.033356 347.007324,321.967896 346.692932,322.058472 
	C345.729553,322.440491 345.080597,322.731995 344.431641,323.023468 
z"/>
<path fill="#000000" opacity="1.000000" stroke="none" 
	d="
M267.004211,484.165833 
	C267.004547,481.406677 267.004547,479.118225 267.004547,476.829742 
	C267.407837,476.828400 267.811096,476.827087 268.214386,476.825745 
	C268.214386,492.559753 268.214386,508.293793 268.214386,524.027832 
	C267.975555,524.041809 267.736694,524.055847 267.497864,524.069824 
	C267.333191,510.925385 267.168518,497.780975 267.004211,484.165833 
z"/>
<path fill="#000000" opacity="1.000000" stroke="none" 
	d="
M515.885132,259.004089 
	C518.979919,259.004333 521.596375,259.004333 524.212830,259.004333 
	C524.210754,259.246674 524.208618,259.489014 524.206543,259.731354 
	C510.730682,259.731354 497.254791,259.731354 483.778931,259.731354 
	C483.775879,259.488831 483.772827,259.246338 483.769775,259.003815 
	C494.315430,259.003815 504.861084,259.003815 515.885132,259.004089 
z"/>
<path fill="#000000" opacity="1.000000" stroke="none" 
	d="
M767.002686,493.035797 
	C766.619690,485.314728 766.236755,478.084534 765.853821,470.854370 
	C766.305786,470.844208 766.757751,470.834076 767.209717,470.823944 
	C767.209717,482.934631 767.209717,495.045319 767.209717,507.156006 
	C767.140686,507.163300 767.071716,507.170593 767.002686,507.177887 
	C767.002686,502.627472 767.002686,498.077087 767.002686,493.035797 
z"/>
<path fill="#000000" opacity="1.000000" stroke="none" 
	d="
M515.679932,232.994095 
	C505.465637,232.993576 495.704834,232.993576 485.944031,232.993576 
	C485.943359,232.771957 485.942688,232.550323 485.942017,232.328705 
	C497.656250,232.328705 509.370514,232.328705 521.084778,232.328705 
	C521.097656,232.550674 521.110596,232.772644 521.123535,232.994614 
	C519.460144,232.994614 517.796814,232.994614 515.679932,232.994095 
z"/>
<path fill="#000000" opacity="1.000000" stroke="none" 
	d="
M240.002594,489.077759 
	C240.002670,485.650024 240.002670,482.707031 240.002670,479.764038 
	C240.246872,479.766296 240.491058,479.768585 240.735260,479.770874 
	C240.735260,490.593323 240.735260,501.415802 240.735260,512.238220 
	C240.491013,512.241821 240.246780,512.245361 240.002533,512.248901 
	C240.002533,504.686768 240.002533,497.124634 240.002594,489.077759 
z"/>
<path fill="#000000" opacity="1.000000" stroke="none" 
	d="
M740.926270,511.306824 
	C740.686707,511.684509 740.485168,511.750946 740.283630,511.817383 
	C740.283630,501.140015 740.283630,490.462677 740.283630,479.785309 
	C740.510559,479.784637 740.737427,479.783936 740.964355,479.783234 
	C740.964355,490.187347 740.964355,500.591431 740.926270,511.306824 
z"/>
<path fill="#000000" opacity="1.000000" stroke="none" 
	d="
M498.076050,732.002258 
	C505.456085,732.002258 512.349670,732.002258 519.243286,732.002258 
	C519.239319,732.246216 519.235291,732.490234 519.231323,732.734192 
	C509.079437,732.734192 498.927582,732.734192 488.775696,732.734192 
	C488.773438,732.490234 488.771149,732.246216 488.768890,732.002258 
	C491.709137,732.002258 494.649353,732.002258 498.076050,732.002258 
z"/>
<path fill="#083301" opacity="1.000000" stroke="none" 
	d="
M666.964172,326.435303 
	C666.660217,326.274597 666.589722,326.030609 666.841919,325.586517 
	C672.526123,326.986053 675.589844,330.866821 676.577271,336.281250 
	C675.736877,336.009521 675.340149,335.728882 674.943481,335.448242 
	C673.381104,333.851074 671.818726,332.253906 670.118408,330.127533 
	C668.974976,328.544006 667.969604,327.489655 666.964172,326.435303 
z"/>
<path fill="#147B01" opacity="1.000000" stroke="none" 
	d="
M315.628754,355.488953 
	C315.390015,355.630371 315.151306,355.771790 314.517212,356.043213 
	C315.729004,354.659210 317.336151,353.145172 319.293701,351.725769 
	C318.477539,353.102234 317.310974,354.384094 315.841003,355.566528 
	C315.537567,355.467133 315.628754,355.488953 315.628754,355.488953 
z"/>
<path fill="#158201" opacity="1.000000" stroke="none" 
	d="
M708.028564,378.104218 
	C707.823853,378.816132 707.668518,379.352478 707.513184,379.888824 
	C707.066589,379.502472 706.620056,379.116150 706.059753,378.481018 
	C706.404114,377.862579 706.862183,377.492920 707.667542,377.054260 
	C708.014832,376.985291 708.254333,377.221344 708.254333,377.221344 
	C708.176086,377.452240 708.117310,377.688019 708.028564,378.104218 
z"/>
<path fill="#168601" opacity="1.000000" stroke="none" 
	d="
M614.793579,702.728271 
	C615.526245,702.343628 616.225403,701.981445 617.322266,701.805054 
	C617.019104,702.399841 616.318237,702.808899 615.298096,703.122681 
	C614.978821,703.027466 614.774780,702.830139 614.774780,702.830139 
	C614.774780,702.830139 614.760193,702.750854 614.793579,702.728271 
z"/>
<path fill="#000000" opacity="1.000000" stroke="none" 
	d="
M728.855469,353.884338 
	C728.220337,354.019562 727.583313,354.124786 726.946350,354.230011 
	C727.070923,354.624512 727.195496,355.019043 727.320129,355.413513 
	C727.955933,355.055176 728.591736,354.696808 729.008789,354.098816 
	C728.790039,353.859161 728.853577,353.854370 728.855469,353.884338 
z"/>
<path fill="#1A9E02" opacity="1.000000" stroke="none" 
	d="
M674.662598,335.651245 
	C675.340149,335.728882 675.736877,336.009521 676.788818,336.619995 
	C677.444092,336.949829 677.574768,336.895874 677.601807,336.898376 
	C676.546509,336.552002 675.464172,336.203125 674.662598,335.651245 
z"/>
<path fill="#168601" opacity="1.000000" stroke="none" 
	d="
M623.376221,699.006226 
	C623.369507,698.293518 623.583801,697.485046 624.069702,696.446411 
	C624.093323,697.114319 623.845215,698.012451 623.376221,699.006226 
z"/>
<path fill="#000000" opacity="1.000000" stroke="none" 
	d="
M363.989990,720.850220 
	C363.744141,720.994995 363.459717,720.841980 363.106415,720.394043 
	C363.209259,719.874634 363.422333,719.573242 363.635406,719.271912 
	C363.480438,719.270569 363.325500,719.269226 363.170532,719.267944 
	C363.417053,719.721680 363.663574,720.175476 363.989990,720.850220 
z"/>
<path fill="#000000" opacity="1.000000" stroke="none" 
	d="
M646.355225,271.235901 
	C645.915222,271.381073 645.505005,271.551605 645.094727,271.722168 
	C645.061462,271.576385 645.028259,271.430603 644.995056,271.284821 
	C645.300537,271.242889 645.606018,271.200958 646.179016,271.234375 
	C646.446533,271.309662 646.385010,271.261261 646.355225,271.235901 
z"/>
<path fill="#168601" opacity="1.000000" stroke="none" 
	d="
M615.079956,703.127075 
	C615.181152,703.226624 614.763000,703.415588 614.763000,703.415588 
	C614.763000,703.415588 614.618347,703.012329 614.696533,702.921265 
	C614.774780,702.830139 614.978821,703.027466 615.079956,703.127075 
z"/>
<path fill="#168601" opacity="1.000000" stroke="none" 
	d="
M612.442139,704.549072 
	C612.395752,704.476379 612.586853,704.456726 612.586853,704.456726 
	C612.586853,704.456726 612.488464,704.621704 612.442139,704.549072 
z"/>
<path fill="#168601" opacity="1.000000" stroke="none" 
	d="
M610.450928,705.442017 
	C610.523682,705.395691 610.543213,705.586731 610.543213,705.586731 
	C610.543213,705.586731 610.378235,705.488281 610.450928,705.442017 
z"/>
<path fill="#000000" opacity="1.000000" stroke="none" 
	d="
M723.401733,350.378235 
	C723.524536,350.282532 723.592712,350.622711 723.592712,350.622711 
	C723.592712,350.622711 723.278992,350.473969 723.401733,350.378235 
z"/>
<path fill="#147B01" opacity="1.000000" stroke="none" 
	d="
M354.563507,712.576050 
	C354.475647,712.636292 354.443237,712.400696 354.443237,712.400696 
	C354.443237,712.400696 354.651367,712.515808 354.563507,712.576050 
z"/>
<path fill="#000000" opacity="1.000000" stroke="none" 
	d="
M357.598877,714.620361 
	C357.476196,714.715698 357.408356,714.376709 357.408356,714.376709 
	C357.408356,714.376709 357.721588,714.525024 357.598877,714.620361 
z"/>
<path fill="#000000" opacity="1.000000" stroke="none" 
	d="
M328.333801,339.287994 
	C328.391388,339.133240 328.497528,339.152924 328.534729,339.113953 
	C328.571899,339.074982 328.634705,339.501129 328.634705,339.501129 
	C328.634705,339.501129 328.276245,339.442749 328.333801,339.287994 
z"/>
<path fill="#000000" opacity="1.000000" stroke="none" 
	d="
M641.397827,269.378510 
	C641.521118,269.282715 641.590149,269.622498 641.590149,269.622498 
	C641.590149,269.622498 641.274475,269.474304 641.397827,269.378510 
z"/>
<path fill="#000000" opacity="1.000000" stroke="none" 
	d="
M263.620209,607.400269 
	C263.715698,607.523254 263.376099,607.591309 263.376099,607.591309 
	C263.376099,607.591309 263.524719,607.277344 263.620209,607.400269 
z"/>
<path fill="#000000" opacity="1.000000" stroke="none" 
	d="
M276.598846,628.620178 
	C276.476074,628.715454 276.408295,628.376404 276.408295,628.376404 
	C276.408295,628.376404 276.721619,628.524902 276.598846,628.620178 
z"/>
<path fill="#000000" opacity="1.000000" stroke="none" 
	d="
M626.400391,698.379272 
	C626.523010,698.283936 626.591064,698.622864 626.591064,698.622864 
	C626.591064,698.622864 626.277710,698.474670 626.400391,698.379272 
z"/>
<path fill="#158201" opacity="1.000000" stroke="none" 
	d="
M707.894897,376.867432 
	C707.774963,376.749542 708.225342,376.595428 708.225342,376.595428 
	C708.225342,376.595428 708.377869,377.008057 708.316101,377.114685 
	C708.254333,377.221344 708.014832,376.985291 707.894897,376.867432 
z"/>
<path fill="#1BA402" opacity="1.000000" stroke="none" 
	d="
M456.881653,680.042297 
	C456.581635,678.891296 456.281647,677.740356 456.105072,676.154297 
	C456.112152,674.826721 455.995789,673.934143 455.879425,673.041626 
	C454.960785,670.224426 454.042145,667.407166 453.141602,663.975586 
	C454.176239,659.852051 453.975464,656.778931 450.163849,654.999573 
	C449.471466,651.228943 448.779053,647.458252 448.381042,643.207275 
	C451.221375,638.232544 449.467102,630.874512 445.164185,627.999573 
	C444.886078,626.572388 444.607971,625.145142 444.484680,623.248413 
	C447.504425,620.230530 444.441864,619.886841 443.186066,618.871155 
	C442.503906,614.065491 442.045074,609.214539 441.083405,604.465515 
	C439.868439,598.465759 438.173187,592.565125 436.810425,586.593140 
	C433.976746,574.175232 431.713867,561.602478 428.301178,549.348206 
	C424.977966,537.415222 420.554291,525.785950 416.535065,514.050293 
	C413.491730,505.164124 410.438141,496.278076 407.159119,487.477631 
	C405.767090,483.741577 403.829163,480.204010 402.065948,476.612274 
	C397.485199,467.281281 392.816833,457.992798 388.317505,448.622986 
	C387.751160,447.443573 387.988831,445.878021 387.854858,443.863342 
	C386.975830,443.042664 386.096008,442.850067 385.216156,442.657471 
	C378.246124,431.984589 371.631653,421.056061 364.198059,410.716431 
	C357.788910,401.801697 350.391296,393.601807 343.551758,384.989716 
	C341.539612,382.456085 339.975708,379.570160 338.129181,376.899048 
	C337.576172,376.099060 336.829865,374.971985 336.054932,374.867981 
	C333.118774,374.473969 333.306274,372.466125 333.742126,370.444641 
	C334.358673,370.171021 334.590607,369.872925 334.822540,369.574860 
	C334.866211,364.931946 338.783752,367.183533 339.814819,367.632721 
	C350.583740,372.324951 361.711639,376.547760 371.665771,382.652435 
	C381.000031,388.376953 389.041260,396.209839 397.529480,403.492249 
	C396.251495,403.542084 395.095551,403.214630 393.939636,402.887146 
	C393.752563,403.173950 393.565491,403.460754 393.378448,403.747528 
	C396.382202,406.983398 399.385925,410.219238 402.824097,413.923065 
	C403.240265,411.855164 403.516632,410.481995 403.792999,409.108795 
	C404.714508,411.002930 405.584961,412.924896 406.592041,414.772369 
	C406.857330,415.259033 407.638947,415.435913 408.023773,415.890320 
	C410.509888,418.826019 412.951782,421.799225 415.051239,425.240356 
	C416.044067,426.575867 417.393829,427.431152 418.743591,428.286407 
	C419.978577,431.007965 421.213593,433.729492 422.289490,436.763367 
	C422.130371,437.075714 421.786804,437.002930 421.786804,437.002930 
	C421.786804,437.002930 422.061768,436.848206 422.061768,436.848206 
	C423.328583,437.107513 425.316650,436.960602 425.732666,437.699158 
	C427.232788,440.362488 427.926086,443.482269 429.440155,446.135132 
	C431.600616,449.920502 434.676483,453.225159 436.549072,457.125153 
	C441.788452,468.037018 446.679535,479.118744 451.570801,490.194061 
	C454.353241,496.494385 457.241730,502.788177 459.420410,509.306213 
	C463.441620,521.336670 466.967957,533.532288 470.714325,545.654846 
	C474.725922,558.635437 478.775879,571.604248 482.752197,584.595642 
	C483.417664,586.769836 483.793793,589.032593 484.577484,592.447876 
	C487.230286,582.878967 489.518402,574.169312 492.085449,565.542664 
	C493.549591,560.622314 495.466766,555.836731 497.183411,550.991699 
	C500.789734,540.813416 504.150055,530.538757 508.080780,520.487244 
	C511.506073,511.728180 515.707886,503.276154 519.328918,494.589447 
	C524.343323,482.560303 528.965759,470.365234 534.134155,458.404602 
	C535.532104,455.169434 538.328552,452.547760 540.413147,449.595123 
	C541.167542,448.526489 542.049500,447.383362 542.308105,446.155182 
	C544.424683,436.103638 551.784973,429.413574 558.029907,421.985321 
	C558.216064,423.442352 558.088989,424.720093 557.905151,426.567963 
	C564.141968,420.682404 569.689514,415.447296 575.401733,410.093262 
	C575.355530,409.651001 575.144714,409.327728 574.465637,409.002930 
	C572.012451,409.848694 570.027588,410.695984 568.042664,411.543274 
	C570.968140,409.925293 574.026306,408.502777 576.780884,406.633057 
	C579.413696,404.846008 581.730713,402.593689 585.236633,399.670258 
	C582.758789,398.996582 581.344910,398.094055 580.395081,398.445557 
	C576.705750,399.810944 573.159424,401.565186 569.572693,403.202698 
	C569.133179,403.403351 568.392517,403.834045 568.428101,404.055939 
	C569.448792,410.414001 562.826904,409.892548 560.286377,413.043091 
	C558.622192,415.106903 556.435852,415.563171 555.401001,411.207428 
	C551.220886,414.942017 552.930969,421.789948 546.871582,423.128662 
	C546.515259,422.053223 546.515259,421.092896 546.515259,420.132568 
	C546.072815,419.917999 545.630371,419.703461 545.187927,419.488892 
	C543.338257,421.558319 541.229553,423.463409 539.762390,425.775604 
	C539.148376,426.743347 539.895447,428.574768 540.023682,430.013550 
	C539.399658,431.102173 538.775574,432.190796 537.718262,433.299561 
	C537.160217,433.189423 537.035461,433.059113 536.910645,432.928772 
	C536.813477,432.264771 536.716309,431.600769 536.760681,430.472229 
	C536.577881,429.979004 536.253601,429.950317 535.929260,429.921661 
	C535.216309,432.865356 534.912048,435.988373 533.713745,438.719116 
	C530.114380,446.921906 526.132385,454.956085 522.385254,463.095428 
	C521.709595,464.563049 521.440491,466.217896 520.285828,467.752930 
	C520.088562,466.625641 519.891235,465.498352 519.894104,465.514709 
	C518.851013,466.561310 517.557983,467.858704 516.504822,468.411011 
	C516.744629,456.349060 516.744629,445.032166 516.744629,433.715271 
	C516.637268,433.707855 516.529968,433.700470 516.422607,433.693054 
	C516.422607,445.322327 516.422607,456.951569 516.422607,468.580841 
	C515.615967,467.792023 514.123352,467.020020 514.103577,466.211945 
	C513.674194,448.676666 514.522095,431.192657 519.588196,414.304352 
	C522.179016,405.667542 525.836731,397.302734 529.616333,389.093109 
	C531.229614,385.588928 534.386292,382.795319 537.155029,379.838287 
	C537.468323,380.954590 537.468323,381.911469 537.468323,382.924683 
	C540.492554,380.070801 543.114929,377.596161 545.983582,374.889099 
	C544.520325,374.636200 543.309692,374.426941 542.098999,374.217712 
	C545.328918,372.069061 548.458923,369.741760 551.834595,367.853668 
	C553.324890,367.020142 555.313660,367.077911 557.597412,367.085876 
	C559.137024,367.219147 560.155334,366.997559 561.173706,366.776001 
	C560.834717,366.355652 560.495667,365.935333 560.156677,365.514954 
	C561.765137,364.650513 563.285034,363.503296 564.996277,362.966888 
	C577.348694,359.094757 590.003235,358.358215 602.838623,359.477539 
	C614.530029,360.497070 626.188721,360.534790 637.582764,357.174530 
	C639.480896,356.614777 641.148560,355.316589 642.994080,354.525909 
	C646.242371,353.134064 649.545593,351.870392 653.255615,350.433197 
	C656.116516,350.089691 658.147034,349.532776 656.997498,346.330963 
	C657.183228,345.612091 657.369019,344.893250 657.717285,343.787598 
	C658.676331,342.946198 659.472778,342.491516 660.269287,342.036865 
	C661.631470,341.778168 662.993591,341.519501 664.690063,341.197327 
	C666.955444,343.174713 666.637878,345.217438 664.597107,348.030457 
	C656.556030,359.114136 650.749207,371.330780 646.949829,384.513580 
	C643.371521,396.929871 640.168701,409.491791 635.816589,421.637024 
	C631.540955,433.568481 626.409546,445.258240 617.833740,455.220673 
	C617.205200,454.008545 616.977356,452.822845 616.749512,451.637115 
	C616.915222,452.151520 617.080872,452.665894 617.246582,453.180298 
	C612.979004,456.482788 608.711365,459.785278 603.512695,463.808319 
	C606.446411,464.345520 607.668884,464.569366 608.891357,464.793213 
	C606.945984,466.322601 605.160950,468.153381 603.010620,469.297577 
	C600.811279,470.467804 598.638062,473.408997 595.594482,470.430725 
	C595.240051,470.083862 593.872437,470.772278 592.476379,471.096405 
	C593.513428,472.048401 594.171936,472.652954 595.205566,473.601837 
	C593.781250,474.579315 592.508179,475.863068 590.969910,476.440674 
	C582.461670,479.635651 573.883728,482.644440 565.340027,485.745667 
	C560.161438,487.625427 555.032349,489.645996 549.824951,491.440582 
	C544.411377,493.306305 541.884216,497.032349 540.694336,502.620453 
	C539.166748,509.794434 536.470154,516.710571 534.612976,523.825439 
	C531.610840,535.326294 528.576599,546.833801 526.108215,558.455750 
	C522.154297,577.072632 518.700745,595.795227 514.944458,614.454834 
	C511.598145,631.078064 507.970184,647.645996 504.769165,664.296570 
	C502.687225,675.126160 499.579224,683.846863 494.415436,690.713989 
	C493.826935,689.748413 493.291595,688.870117 492.551331,687.655518 
	C491.801056,688.746338 490.381470,689.927063 490.584900,690.652771 
	C492.390137,697.092529 487.200745,698.766235 483.442322,701.114319 
	C478.461304,704.226501 472.847839,706.099243 467.182892,703.616516 
	C465.747620,702.987610 465.625061,699.368347 464.889130,697.126465 
	C464.842255,696.983704 464.723419,696.788086 464.607910,696.764465 
	C464.472870,696.736755 464.304718,696.870850 463.549377,696.862305 
	C462.020477,696.282227 461.093079,695.774658 460.165710,695.267029 
	C459.794586,694.059265 459.423431,692.851562 459.370850,691.189453 
	C462.864044,686.091492 459.776794,683.092102 456.881653,680.042297 
M604.989563,361.001892 
	C597.570801,361.001892 590.152039,361.001892 582.733276,361.001892 
	C582.737000,361.240784 582.740662,361.479645 582.744324,361.718536 
	C591.561829,361.718536 600.379395,361.718536 609.196899,361.718536 
	C609.201477,361.531128 609.206055,361.343719 609.210632,361.156311 
	C608.080811,361.105011 606.951050,361.053741 604.989563,361.001892 
M389.722473,447.524780 
	C389.722473,447.524780 389.408600,447.376282 389.408600,447.376282 
	C389.408600,447.376282 389.476685,447.715790 389.722473,447.524780 
M425.278259,443.475159 
	C425.278259,443.475159 425.591705,443.623596 425.591705,443.623596 
	C425.591705,443.623596 425.523834,443.284454 425.278259,443.475159 
M387.378113,440.488495 
	C387.378113,440.488495 387.542847,440.586792 387.542847,440.586792 
	C387.542847,440.586792 387.523407,440.395935 387.378113,440.488495 
z"/>
<path fill="#083101" opacity="1.000000" stroke="none" 
	d="
M575.237122,410.212219 
	C569.689514,415.447296 564.141968,420.682404 557.905151,426.567963 
	C558.088989,424.720093 558.216064,423.442352 558.379700,421.585266 
	C559.381287,420.148285 560.346375,419.290741 561.984619,418.344910 
	C563.449463,416.979614 564.241028,415.702637 565.032654,414.425629 
	C565.032654,414.425629 565.213623,414.065430 565.724792,413.946594 
	C567.013489,413.544342 567.790955,413.260925 568.568481,412.977539 
	C568.405823,412.509735 568.243103,412.041931 568.061523,411.558716 
	C570.027588,410.695984 572.012451,409.848694 574.538696,409.305542 
	C575.132446,409.810577 575.184814,410.011414 575.237122,410.212219 
z"/>
<path fill="#083101" opacity="1.000000" stroke="none" 
	d="
M609.095520,464.648560 
	C607.668884,464.569366 606.446411,464.345520 603.512695,463.808319 
	C608.711365,459.785278 612.979004,456.482788 617.246582,453.180298 
	C617.080872,452.665894 616.915222,452.151520 616.749512,451.637115 
	C616.977356,452.822845 617.205200,454.008545 617.613037,455.542908 
	C616.682068,456.553101 615.571045,457.214661 614.066284,457.967499 
	C613.438477,458.729675 613.204407,459.400635 612.970337,460.071564 
	C612.970337,460.071564 612.967285,459.969757 612.682617,460.070984 
	C611.946899,460.647949 611.495789,461.123688 611.044739,461.599396 
	C610.463074,462.567566 609.881348,463.535767 609.095520,464.648560 
z"/>
<path fill="#083101" opacity="1.000000" stroke="none" 
	d="
M403.630859,408.883484 
	C403.516632,410.481995 403.240265,411.855164 402.824097,413.923065 
	C399.385925,410.219238 396.382202,406.983398 393.378448,403.747528 
	C393.565491,403.460754 393.752563,403.173950 393.939636,402.887146 
	C395.095551,403.214630 396.251495,403.542084 397.860199,403.834137 
	C400.031555,405.418518 401.750122,407.038330 403.630859,408.883484 
z"/>
<path fill="#1BA402" opacity="1.000000" stroke="none" 
	d="
M445.134766,628.392395 
	C449.467102,630.874512 451.221375,638.232544 448.419647,642.863647 
	C447.144379,638.261963 446.124878,633.523560 445.134766,628.392395 
z"/>
<path fill="#083101" opacity="1.000000" stroke="none" 
	d="
M541.873108,374.391479 
	C543.309692,374.426941 544.520325,374.636200 545.983582,374.889099 
	C543.114929,377.596161 540.492554,380.070801 537.468323,382.924683 
	C537.468323,381.911469 537.468323,380.954590 537.488647,379.476379 
	C538.888428,377.491760 540.267822,376.028473 541.873108,374.391479 
z"/>
<path fill="#1BA402" opacity="1.000000" stroke="none" 
	d="
M456.935852,680.346191 
	C459.776794,683.092102 462.864044,686.091492 459.426880,690.866943 
	C458.439575,687.549194 457.714844,684.099670 456.935852,680.346191 
z"/>
<path fill="#083101" opacity="1.000000" stroke="none" 
	d="
M539.992065,430.011169 
	C539.895447,428.574768 539.148376,426.743347 539.762390,425.775604 
	C541.229553,423.463409 543.338257,421.558319 545.187927,419.488892 
	C545.630371,419.703461 546.072815,419.917999 546.515259,420.132568 
	C546.515259,421.092896 546.515259,422.053223 546.488403,423.537628 
	C544.861389,425.276886 543.261230,426.492065 541.166748,427.882935 
	C540.438416,428.729614 540.204407,429.400574 539.970398,430.071533 
	C539.970398,430.071533 539.960388,430.008759 539.992065,430.011169 
z"/>
<path fill="#1BA402" opacity="1.000000" stroke="none" 
	d="
M450.124207,655.335449 
	C453.975464,656.778931 454.176239,659.852051 453.027039,663.707886 
	C451.957825,661.260193 451.021210,658.465759 450.124207,655.335449 
z"/>
<path fill="#158201" opacity="1.000000" stroke="none" 
	d="
M418.530945,427.962677 
	C417.393829,427.431152 416.044067,426.575867 414.756165,425.489502 
	C415.984741,426.051910 417.151520,426.845428 418.530945,427.962677 
z"/>
<path fill="#072800" opacity="1.000000" stroke="none" 
	d="
M656.800293,346.461975 
	C658.147034,349.532776 656.116516,350.089691 653.503723,350.158203 
	C654.415833,348.866425 655.509460,347.729706 656.800293,346.461975 
z"/>
<path fill="#1A9E02" opacity="1.000000" stroke="none" 
	d="
M559.759521,365.635010 
	C560.495667,365.935333 560.834717,366.355652 561.173706,366.776001 
	C560.155334,366.997559 559.137024,367.219147 557.939209,367.372284 
	C558.293945,366.787567 558.828125,366.271301 559.759521,365.635010 
z"/>
<path fill="#1BA402" opacity="1.000000" stroke="none" 
	d="
M443.272888,619.294922 
	C444.441864,619.886841 447.504425,620.230530 444.401733,622.889587 
	C443.895905,621.906433 443.627808,620.812622 443.272888,619.294922 
z"/>
<path fill="#072800" opacity="1.000000" stroke="none" 
	d="
M660.075989,342.036072 
	C659.472778,342.491516 658.676331,342.946198 657.564148,343.226257 
	C658.126526,342.712921 659.004578,342.374115 660.075989,342.036072 
z"/>
<path fill="#1BA402" opacity="1.000000" stroke="none" 
	d="
M455.823853,673.328247 
	C455.995789,673.934143 456.112152,674.826721 456.054138,675.879456 
	C455.842560,675.231384 455.805389,674.423157 455.823853,673.328247 
z"/>
<path fill="#1BA402" opacity="1.000000" stroke="none" 
	d="
M460.316772,695.591309 
	C461.093079,695.774658 462.020477,696.282227 463.391663,697.077515 
	C463.776337,697.948059 463.717133,698.530945 463.516296,699.470398 
	C463.225891,699.913208 463.077148,699.999390 462.928375,700.085632 
	C462.108215,698.695618 461.288025,697.305664 460.316772,695.591309 
z"/>
<path fill="#1BA402" opacity="1.000000" stroke="none" 
	d="
M564.709900,414.650391 
	C564.241028,415.702637 563.449463,416.979614 562.278320,418.346802 
	C562.728333,417.249725 563.557739,416.062469 564.709900,414.650391 
z"/>
<path fill="#1A9E02" opacity="1.000000" stroke="none" 
	d="
M666.721069,326.860718 
	C667.969604,327.489655 668.974976,328.544006 670.272583,329.817078 
	C669.202454,329.119232 667.840210,328.202667 666.721069,326.860718 
z"/>
<path fill="#168601" opacity="1.000000" stroke="none" 
	d="
M385.446838,442.921265 
	C386.096008,442.850067 386.975830,443.042664 387.976776,443.422180 
	C387.291077,443.467743 386.484314,443.326385 385.446838,442.921265 
z"/>
<path fill="#1BA402" opacity="1.000000" stroke="none" 
	d="
M613.341187,459.851135 
	C613.204407,459.400635 613.438477,458.729675 613.847290,457.745819 
	C613.918762,458.165466 613.815430,458.898071 613.341187,459.851135 
z"/>
<path fill="#1BA402" opacity="1.000000" stroke="none" 
	d="
M540.341370,429.851135 
	C540.204407,429.400574 540.438416,428.729614 540.847290,427.745758 
	C540.918884,428.165497 540.815613,428.898102 540.341370,429.851135 
z"/>
<path fill="#1BA402" opacity="1.000000" stroke="none" 
	d="
M568.163269,412.739258 
	C567.790955,413.260925 567.013489,413.544342 565.828857,413.927734 
	C566.200500,413.518829 566.979309,413.009888 568.163269,412.739258 
z"/>
<path fill="#1BA402" opacity="1.000000" stroke="none" 
	d="
M344.782593,323.278748 
	C345.080597,322.731995 345.729553,322.440491 346.725891,322.059631 
	C346.426666,322.491516 345.780121,323.012787 344.782593,323.278748 
z"/>
<path fill="#1BA402" opacity="1.000000" stroke="none" 
	d="
M537.472168,433.515381 
	C537.209839,433.932526 536.760437,434.154022 536.311035,434.375549 
	C536.356873,433.974609 536.402649,433.573730 536.679565,433.050781 
	C537.035461,433.059113 537.160217,433.189423 537.472168,433.515381 
z"/>
<path fill="#1BA402" opacity="1.000000" stroke="none" 
	d="
M330.341125,338.852173 
	C330.206665,338.402405 330.442993,337.731659 330.851379,336.746338 
	C330.919586,337.164917 330.815735,337.898041 330.341125,338.852173 
z"/>
<path fill="#1BA402" opacity="1.000000" stroke="none" 
	d="
M315.502502,355.750183 
	C315.628754,355.488953 315.537567,355.467133 315.498291,355.483459 
	C315.514771,355.916321 315.574127,356.332489 315.614899,356.750488 
	C315.616760,356.769440 315.450562,356.804779 315.362671,356.832489 
	C315.367188,356.558807 315.371735,356.285126 315.502502,355.750183 
z"/>
<path fill="#1BA402" opacity="1.000000" stroke="none" 
	d="
M695.325623,361.286957 
	C695.627441,361.131104 695.952332,361.241516 696.277222,361.351898 
	C695.967712,361.419006 695.658203,361.486115 695.325623,361.286957 
z"/>
<path fill="#1BA402" opacity="1.000000" stroke="none" 
	d="
M611.393066,461.564758 
	C611.495789,461.123688 611.946899,460.647949 612.733521,460.069458 
	C612.626526,460.487793 612.183899,461.008942 611.393066,461.564758 
z"/>
<path fill="#1BA402" opacity="1.000000" stroke="none" 
	d="
M463.599976,699.701538 
	C463.592255,699.874451 463.359192,700.172791 463.027283,700.278381 
	C463.077148,699.999390 463.225891,699.913208 463.599976,699.701538 
z"/>
<path fill="#1A9E02" opacity="1.000000" stroke="none" 
	d="
M664.491943,325.374420 
	C664.697144,325.363800 664.765442,325.454041 664.833740,325.544312 
	C664.674194,325.521332 664.514648,325.498322 664.491943,325.374420 
z"/>
<path fill="#1BA402" opacity="1.000000" stroke="none" 
	d="
M658.480103,671.576660 
	C658.477722,671.369995 658.584961,671.244019 658.665955,671.259094 
	C658.745850,671.273987 658.799255,671.431458 658.864258,671.526367 
	C658.768921,671.590576 658.673523,671.654846 658.480103,671.576660 
z"/>
<path fill="#1BA402" opacity="1.000000" stroke="none" 
	d="
M359.519806,311.423401 
	C359.522186,311.629974 359.415009,311.755859 359.334045,311.740845 
	C359.254211,311.726013 359.200867,311.568481 359.135864,311.473602 
	C359.231171,311.409393 359.326447,311.345184 359.519806,311.423401 
z"/>
<path fill="#1BA402" opacity="1.000000" stroke="none" 
	d="
M369.702148,303.399658 
	C369.875031,303.407410 370.173340,303.640778 370.278870,303.973083 
	C369.999969,303.923096 369.913788,303.774170 369.702148,303.399658 
z"/>
<path fill="#1BA402" opacity="1.000000" stroke="none" 
	d="
M378.702454,297.399414 
	C378.875458,297.407257 379.173981,297.640839 379.279541,297.973450 
	C379.000366,297.923401 378.914154,297.774292 378.702454,297.399414 
z"/>
<path fill="#1BA402" opacity="1.000000" stroke="none" 
	d="
M422.202454,433.794800 
	C422.150299,433.745361 422.254608,433.844208 422.202454,433.794800 
z"/>
<path fill="#1BA402" opacity="1.000000" stroke="none" 
	d="
M554.285522,416.387695 
	C554.488403,416.360352 554.563538,416.444611 554.638611,416.528839 
	C554.478333,416.518982 554.317993,416.509125 554.285522,416.387695 
z"/>
<path fill="#1BA402" opacity="1.000000" stroke="none" 
	d="
M640.297241,686.600769 
	C640.124268,686.592957 639.825745,686.359192 639.720154,686.026367 
	C639.999329,686.076477 640.085510,686.225647 640.297241,686.600769 
z"/>
<path fill="#1BA402" opacity="1.000000" stroke="none" 
	d="
M636.153442,689.065735 
	C636.296204,688.722778 636.668091,688.529541 637.040039,688.336304 
	C637.092041,688.570801 637.144043,688.805359 637.018616,689.277222 
	C636.688293,689.414856 636.535461,689.315125 636.153442,689.065735 
z"/>
<path fill="#1BA402" opacity="1.000000" stroke="none" 
	d="
M492.402039,692.285767 
	C492.600647,692.264954 492.670746,692.352051 492.740875,692.439209 
	C492.585083,692.424011 492.429291,692.408813 492.402039,692.285767 
z"/>
<path fill="#000000" opacity="1.000000" stroke="none" 
	d="
M516.405579,468.558655 
	C516.422607,456.951569 516.422607,445.322327 516.422607,433.693054 
	C516.529968,433.700470 516.637268,433.707855 516.744629,433.715271 
	C516.744629,445.032166 516.744629,456.349060 516.566467,468.102051 
	C516.388306,468.538177 516.388550,468.536469 516.405579,468.558655 
z"/>
<path fill="#000000" opacity="1.000000" stroke="none" 
	d="
M605.405396,361.002167 
	C606.951050,361.053741 608.080811,361.105011 609.210632,361.156311 
	C609.206055,361.343719 609.201477,361.531128 609.196899,361.718536 
	C600.379395,361.718536 591.561829,361.718536 582.744324,361.718536 
	C582.740662,361.479645 582.737000,361.240784 582.733276,361.001892 
	C590.152039,361.001892 597.570801,361.001892 605.405396,361.002167 
z"/>
<path fill="#000000" opacity="1.000000" stroke="none" 
	d="
M389.599579,447.620300 
	C389.476685,447.715790 389.408600,447.376282 389.408600,447.376282 
	C389.408600,447.376282 389.722473,447.524780 389.599579,447.620300 
z"/>
<path fill="#000000" opacity="1.000000" stroke="none" 
	d="
M425.401062,443.379822 
	C425.523834,443.284454 425.591705,443.623596 425.591705,443.623596 
	C425.591705,443.623596 425.278259,443.475159 425.401062,443.379822 
z"/>
<path fill="#168601" opacity="1.000000" stroke="none" 
	d="
M387.450745,440.442200 
	C387.523407,440.395935 387.542847,440.586792 387.542847,440.586792 
	C387.542847,440.586792 387.378113,440.488495 387.450745,440.442200 
z"/>
<path fill="#000000" opacity="1.000000" stroke="none" 
	d="
M422.055542,436.863007 
	C422.061768,436.848206 421.786804,437.002930 421.786804,437.002930 
	C421.786804,437.002930 422.130371,437.075714 422.072266,436.986450 
	C422.014160,436.897217 422.049286,436.877808 422.055542,436.863007 
z"/>
<path fill="#000000" opacity="1.000000" stroke="none" 
	d="
M536.152100,430.050018 
	C536.253601,429.950317 536.577881,429.979004 536.863281,430.218201 
	C536.674500,430.345276 536.524719,430.261841 536.152100,430.050018 
z"/>
<path fill="#083101" opacity="1.000000" stroke="none" 
	d="
M575.006958,409.307068 
	C575.144714,409.327728 575.355530,409.651001 575.401733,410.093262 
	C575.184814,410.011414 575.132446,409.810577 575.006958,409.307068 
z"/>
<path fill="#000000" opacity="1.000000" stroke="none" 
	d="
M334.598206,369.700256 
	C334.590607,369.872925 334.358673,370.171021 334.028168,370.276642 
	C334.077698,369.997986 334.225769,369.911804 334.598206,369.700256 
z"/>
</svg>